<svg width="56" height="86" viewBox="0 0 56 86" fill="none" xmlns="http://www.w3.org/2000/svg">
<path d="M18.3474 59.3582C18.1247 59.3581 17.7607 59.2209 17.3966 58.4366C17.0384 57.6651 16.8021 56.4794 16.7897 54.981L16.7828 54.1611L15.9785 54.0067C14.5302 53.728 13.4265 53.2839 12.7457 52.7929C12.1465 52.3606 12.0059 52.0059 12.0099 51.755L12.0196 51.6534C12.0811 51.3062 12.4418 50.777 13.4093 50.2198C14.3367 49.6856 15.6469 49.2328 17.2001 48.9552L17.7679 48.8535L17.9644 48.3111C18.511 46.804 19.184 45.5704 19.8671 44.7343C20.5839 43.857 21.155 43.6007 21.4796 43.6007C21.7023 43.6009 22.0664 43.7382 22.4305 44.5223C22.7887 45.2938 23.0249 46.4795 23.0374 47.9779L23.0442 48.7978L23.8485 48.9522L24.3752 49.0646C25.5661 49.343 26.4856 49.7363 27.0813 50.166C27.6812 50.5988 27.8215 50.9539 27.8172 51.2048L27.8074 51.3055C27.7461 51.6527 27.3853 52.1818 26.4177 52.7392C25.4903 53.2733 24.1801 53.7261 22.6269 54.0037L22.0591 54.1054L21.8627 54.6478C21.316 56.1549 20.6431 57.3895 19.9599 58.2255C19.2433 59.1026 18.672 59.3582 18.3474 59.3582Z" fill="white" stroke="#FE240B" stroke-width="2"/>
<path d="M28.7689 41.5231C28.7184 41.5231 28.4902 41.5066 28.2196 40.924C27.9558 40.3557 27.7721 39.4583 27.7623 38.302L27.7554 37.4831L26.9511 37.3277C25.8343 37.1121 25.0042 36.7721 24.506 36.412C24.1291 36.1395 24.0375 35.9384 24.0213 35.8197L24.0223 35.7289C24.0527 35.5543 24.2651 35.1826 25.0064 34.7555C25.7066 34.3521 26.7091 34.0035 27.9098 33.789L28.4776 33.6873L28.675 33.145C29.0982 31.977 29.6149 31.0316 30.1312 30.3998C30.6814 29.7265 31.074 29.5907 31.2277 29.5906C31.2782 29.5906 31.5063 29.6077 31.7769 30.1907C32.0407 30.7591 32.2244 31.6564 32.2343 32.8127L32.2411 33.6316L33.0454 33.786L33.45 33.873C34.3642 34.0874 35.0545 34.3866 35.4905 34.7017C35.8673 34.9741 35.959 35.1753 35.9753 35.294L35.9743 35.3849C35.9438 35.5595 35.7315 35.9311 34.9902 36.3582C34.29 36.7616 33.2875 37.1102 32.0867 37.3247L31.5189 37.4264L31.3215 37.9688C30.8984 39.1367 30.3816 40.0821 29.8654 40.7139C29.3152 41.3872 28.9226 41.5231 28.7689 41.5231Z" fill="white" stroke="#FE240B" stroke-width="2"/>
<path d="M33.0703 84.6306C32.8439 84.6306 32.5463 84.5229 32.1927 84.0169C31.8283 83.4953 31.4908 82.6565 31.234 81.4838C30.7234 79.1514 30.5936 75.79 30.9408 71.8274L31.0278 70.8335L30.0349 70.7426C26.1365 70.3877 22.9071 69.6672 20.743 68.748C19.6553 68.286 18.9056 67.8019 18.467 67.3476C18.0438 66.9091 17.981 66.5836 18.0253 66.3341C18.0792 66.0302 18.3328 65.5931 19.0191 65.0725C19.6911 64.5628 20.672 64.0558 21.9402 63.587C24.4713 62.6515 27.9796 61.9291 32.0022 61.5768L32.7009 61.5152L32.8817 60.837C33.9341 56.8762 35.2537 53.4925 36.608 51.1229C37.2867 49.9355 37.9516 49.0427 38.5645 48.4599C39.193 47.8624 39.655 47.6937 39.9425 47.6937C40.1713 47.6937 40.4696 47.8024 40.823 48.3074C41.1875 48.8283 41.525 49.6665 41.7817 50.8385C42.2768 53.0988 42.4126 56.3266 42.1062 60.1334L40.8504 61.3882L42.9779 61.5817C46.8737 61.9365 50.1017 62.658 52.2659 63.5773C53.3533 64.0392 54.1034 64.5222 54.5429 64.9767C54.9145 65.3612 55.0099 65.6595 54.9983 65.8953L54.9866 65.9921C54.9335 66.2947 54.6825 66.7306 53.9966 67.2508C53.325 67.7601 52.3443 68.2667 51.0755 68.7353C48.5436 69.6704 45.0339 70.3926 41.0106 70.7475L40.3119 70.81L40.1311 71.4883C39.0787 75.4487 37.7578 78.8328 36.4028 81.2023C35.7237 82.3899 35.0582 83.2825 34.4453 83.8654C33.8168 84.4631 33.3561 84.6306 33.0703 84.6306Z" fill="white" stroke="#FE240B" stroke-width="2"/>
<g filter="url(#filter0_d_546_18099)">
<path d="M2.00145 20.57V3.00822C2.00145 2.11351 3.0859 1.66846 3.7144 2.30524L15.5309 14.2772C16.155 14.9095 15.707 15.9809 14.8187 15.9809H11.9917C11.2102 15.9809 10.7303 16.8366 11.1378 17.5035L14.1361 22.4097C14.4051 22.8499 14.2954 23.4225 13.8826 23.7321L12.31 24.9116C11.8303 25.2714 11.144 25.1313 10.8435 24.6124L7.6577 19.1096C7.32826 18.5406 6.54895 18.4385 6.08402 18.9034L3.70979 21.2776C3.07937 21.908 2.00145 21.4616 2.00145 20.57Z" fill="white"/>
<path d="M1.00072 3.00804C1.00087 1.21875 3.17006 0.329214 4.42703 1.60272L16.2432 13.5743L16.3536 13.6955C17.4342 14.9708 16.5396 16.982 14.8183 16.982H11.9921L14.9903 21.8879L15.0822 22.056C15.4705 22.8526 15.286 23.8137 14.6307 24.4102L14.4831 24.5324L12.9107 25.712C12.0113 26.3865 10.7486 26.1828 10.0991 25.2996L9.97792 25.1139L6.79202 19.6109L4.41726 21.9856C3.15639 23.2461 1.00072 22.3526 1.00072 20.5696V3.00804Z" stroke="#FE240B" stroke-width="2" stroke-linecap="round"/>
</g>
<defs>
<filter id="filter0_d_546_18099" x="0" y="0" width="19.8283" height="29.1151" filterUnits="userSpaceOnUse" color-interpolation-filters="sRGB">
<feFlood flood-opacity="0" result="BackgroundImageFix"/>
<feColorMatrix in="SourceAlpha" type="matrix" values="0 0 0 0 0 0 0 0 0 0 0 0 0 0 0 0 0 0 127 0" result="hardAlpha"/>
<feOffset dx="2" dy="2"/>
<feComposite in2="hardAlpha" operator="out"/>
<feColorMatrix type="matrix" values="0 0 0 0 0.996078 0 0 0 0 0.141176 0 0 0 0 0.0431373 0 0 0 1 0"/>
<feBlend mode="normal" in2="BackgroundImageFix" result="effect1_dropShadow_546_18099"/>
<feBlend mode="normal" in="SourceGraphic" in2="effect1_dropShadow_546_18099" result="shape"/>
</filter>
</defs>
</svg>
