<svg width="418" height="501" viewBox="0 0 418 501" fill="none" xmlns="http://www.w3.org/2000/svg">
<path d="M392.585 370.074C387.587 365.677 381.107 363.484 373.145 363.484H339.081C338.591 363.484 338.16 363.524 337.779 363.604C337.489 363.524 337.138 363.484 336.748 363.484H311.067C310.236 363.484 309.465 363.664 308.744 364.014C308.033 364.375 307.672 364.906 307.672 365.617C307.672 366.809 308.503 367.52 310.166 367.76L314.092 368.291C318.018 368.762 319.2 372.327 317.658 378.988L299.469 457.781C297.446 466.815 294.061 473.826 289.303 478.814C284.546 483.802 278.306 486.306 270.574 486.306C263.443 486.306 258.145 483.812 254.699 478.814C251.374 473.826 250.773 466.815 252.916 457.781L271.996 375.422C272.587 372.928 273.359 371.206 274.32 370.254C275.392 369.303 277.174 368.652 279.668 368.291L284.666 367.58C286.329 367.34 287.16 366.568 287.16 365.266C287.16 364.075 286.329 363.484 284.666 363.484H252.566C250.423 363.484 249.351 364.195 249.351 365.627C249.351 366.578 250.122 367.229 251.675 367.59L255.24 368.301C257.614 368.772 259.106 369.433 259.697 370.264C260.288 371.095 260.288 372.758 259.697 375.252L240.617 457.611C238.955 464.622 239.015 470.862 240.797 476.33C242.7 481.679 245.916 485.895 250.433 488.99C254.95 491.965 260.418 493.447 266.838 493.447C276.824 493.447 285.087 490.182 291.627 483.642C298.167 477.101 302.684 468.428 305.178 457.611L323.377 378.818C324.919 372.518 327.774 369.012 331.94 368.301L336.217 367.59C336.617 367.51 336.968 367.42 337.289 367.3C337.559 367.41 337.859 367.51 338.2 367.59L341.766 368.301C344.149 368.772 345.632 369.493 346.223 370.444C346.813 371.276 346.813 372.878 346.223 375.262L321.965 480.086C321.374 482.58 320.602 484.303 319.641 485.254C318.689 486.085 316.907 486.676 314.293 487.037L310.727 487.568C308.353 487.928 307.161 488.76 307.161 490.062C307.161 491.254 307.993 491.845 309.655 491.845H346.042C354.726 491.845 362.568 489.942 369.589 486.136C376.72 482.33 382.369 477.222 386.536 470.802C390.692 464.261 392.775 457.08 392.775 449.228C392.775 442.577 391.173 436.748 387.958 431.76C384.743 426.773 380.045 423.147 373.866 420.883C373.275 420.643 372.974 420.353 372.974 419.992C372.974 419.521 373.275 419.221 373.866 419.101C381.828 416.366 388.198 412.03 392.946 406.09C397.703 400.151 400.077 393.851 400.077 387.191C400.077 380.18 397.583 374.471 392.585 370.074ZM374.036 429.617C377.842 434.014 379.745 440.254 379.745 448.336C379.745 455.708 378.263 462.358 375.288 468.298C372.434 474.237 368.507 478.934 363.52 482.38C358.522 485.705 352.883 487.368 346.573 487.368C337.299 487.368 333.613 483.271 335.516 475.068L345.321 432.462C346.633 426.162 350.97 423.017 358.341 423.017C365.122 423.017 370.35 425.22 374.036 429.617ZM383.311 403.406C380.696 408.043 377.191 411.729 372.784 414.453C368.507 417.188 363.75 418.55 358.512 418.55C354.946 418.55 352.562 417.839 351.381 416.406C350.189 414.864 350.008 412.31 350.85 408.744L358.522 375.052C359.593 370.294 363.219 367.921 369.399 367.921C374.988 367.921 379.324 369.703 382.419 373.269C385.634 376.714 387.237 381.592 387.237 387.882C387.237 393.471 385.925 398.639 383.311 403.396V403.406Z" fill="#FE240B"/>
<path d="M230.902 451.181C229.59 451.181 228.638 451.952 228.048 453.494L222.699 465.974C219.604 473.346 215.678 478.754 210.931 482.199C206.173 485.645 201.536 487.368 197.019 487.368C192.973 487.368 189.888 486.416 187.744 484.513C185.601 482.61 185.01 479.525 185.962 475.239L209.148 375.412C209.739 372.918 210.51 371.196 211.472 370.244C212.423 369.293 214.206 368.642 216.82 368.281L221.818 367.57C223.13 367.33 223.901 366.679 224.141 365.607C224.502 364.185 223.781 363.464 221.998 363.464H189.718C187.574 363.464 186.503 364.175 186.503 365.607C186.503 366.558 187.274 367.209 188.826 367.57L192.392 368.281C194.775 368.752 196.258 369.413 196.849 370.244C197.44 371.075 197.44 372.738 196.849 375.232L172.591 480.056C172.11 482.55 171.339 484.273 170.267 485.224C169.316 486.055 167.533 486.646 164.919 487.007L161.353 487.538C158.979 487.898 157.788 488.73 157.788 490.032C157.788 491.224 158.619 491.814 160.281 491.814H217.361C220.215 491.814 221.998 490.452 222.709 487.718L232.695 454.206C233.286 452.182 232.695 451.171 230.912 451.171L230.902 451.181Z" fill="#FE240B"/>
<path d="M350.079 253.291C351.861 246.991 354.065 240.812 356.679 234.752C359.413 228.693 362.568 223.164 366.134 218.176C369.819 213.188 373.866 209.202 378.263 206.237C382.78 203.263 387.778 201.781 393.246 201.781C397.883 201.781 401.269 203.683 403.412 207.489C405.676 211.175 406.978 218.126 407.338 228.342L407.518 233.51C407.518 235.053 408.23 235.824 409.662 235.824C411.204 235.824 412.156 234.812 412.516 232.789L417.865 205.697C418.225 203.794 417.865 202.552 416.793 201.951C414.299 200.529 411.204 199.397 407.518 198.565C403.833 197.614 399.376 197.143 394.137 197.143C385.814 197.143 378.323 199.046 371.662 202.852C365.002 206.658 359.233 211.706 354.365 218.006C349.488 224.186 345.391 231.076 342.056 238.688C338.841 246.17 336.407 253.722 334.745 261.324C333.202 268.926 332.421 275.876 332.421 282.176C332.421 297.27 335.335 308.858 341.165 316.941C346.994 324.903 355.016 328.889 365.242 328.889C369.639 328.889 373.565 328.238 377.011 326.926C380.456 325.624 383.671 324.072 386.646 322.289C388.789 320.987 390.332 319.735 391.283 318.543C392.355 317.351 393.006 316.109 393.246 314.797L403.592 270.057C404.183 267.563 404.844 265.781 405.555 264.709C406.387 263.637 408.109 262.926 410.723 262.566L413.398 262.205C415.18 261.965 416.072 261.193 416.072 259.891C416.072 258.7 415.301 258.109 413.748 258.109H381.468C379.324 258.109 378.253 258.82 378.253 260.252C378.253 261.444 379.024 262.095 380.576 262.215L386.816 262.926C389.55 263.167 391.093 263.818 391.453 264.889C391.924 265.841 391.874 267.503 391.273 269.877L382.359 308.918C381.047 314.737 378.914 318.784 375.939 321.037C372.964 323.181 369.579 324.242 365.773 324.242C359.593 324.242 354.536 321.037 350.609 314.617C346.803 308.077 344.9 298.332 344.9 285.381C344.9 281.455 345.321 276.708 346.152 271.119C347.104 265.53 348.406 259.591 350.079 253.291Z" fill="#FE240B"/>
<path d="M273.158 219.779C273.399 219.188 273.749 218.887 274.23 218.887C274.711 218.887 275.001 219.188 275.121 219.779L301.162 326.025C301.643 327.928 302.644 328.879 304.197 328.879C306.34 328.879 307.702 327.567 308.303 324.953L333.803 214.25C334.755 210.444 335.946 207.83 337.369 206.408C338.911 204.865 341.295 203.854 344.5 203.373L346.994 203.012C348.426 202.892 349.377 202.181 349.848 200.879C350.089 199.567 349.307 198.916 347.525 198.916H322.015C320.232 198.916 319.22 199.567 318.98 200.879C318.619 201.951 319.22 202.662 320.763 203.012L323.797 203.543C325.821 203.904 327.303 204.855 328.254 206.398C329.206 207.82 329.206 210.444 328.254 214.24L309.525 295.167C309.405 295.998 309.054 296.419 308.453 296.419C307.983 296.419 307.622 296.008 307.382 295.167L284.907 202.822C284.316 200.208 282.533 198.906 279.558 198.906H262.261C260.478 198.906 259.467 199.557 259.226 200.869C258.866 201.941 259.467 202.652 261.009 203.002L264.935 203.714C267.549 204.184 269.162 204.845 269.753 205.677C270.344 206.508 270.344 208.171 269.753 210.664L246.386 311.923C245.555 315.248 244.363 317.802 242.821 319.585C241.278 321.247 238.895 322.319 235.69 322.79L233.196 323.15C231.653 323.271 230.762 323.982 230.521 325.294C230.161 326.596 230.882 327.257 232.665 327.257H258.175C259.957 327.257 261.029 326.606 261.39 325.294C261.63 323.992 260.969 323.271 259.427 323.15L257.283 322.79C254.429 322.319 252.586 321.247 251.755 319.585C251.044 317.802 251.104 315.248 251.935 311.923L273.158 219.759V219.779Z" fill="#FE240B"/>
<path d="M244.103 262.385C245.765 254.423 246.597 247.111 246.597 240.461C246.597 227.391 244.694 216.934 240.888 209.082C237.082 201.119 230.842 197.143 222.158 197.143C216.57 197.143 211.281 199.106 206.283 203.022C201.286 206.828 196.708 211.997 192.552 218.537C188.506 224.957 185 232.088 182.026 239.93C179.051 247.652 176.737 255.495 175.065 263.457C173.522 271.42 172.741 278.791 172.741 285.562C172.741 298.632 174.644 309.149 178.45 317.111C182.256 324.953 188.496 328.879 197.179 328.879C202.768 328.879 208.056 326.916 213.054 323C218.052 319.074 222.569 313.906 226.605 307.486C230.772 300.946 234.337 293.825 237.312 286.092C240.287 278.25 242.54 270.348 244.093 262.385H244.103ZM234.998 244.207C234.287 250.507 233.156 257.277 231.613 264.529C230.071 271.78 228.168 278.911 225.904 285.922C223.761 292.933 221.267 299.353 218.412 305.172C215.558 311.001 212.403 315.629 208.958 319.074C205.632 322.519 201.997 324.242 198.081 324.242C194.165 324.242 191.12 323.05 188.986 320.677C186.843 318.183 185.301 314.968 184.349 311.052C183.518 307.125 183.097 302.789 183.097 298.041C183.097 293.644 183.458 288.236 184.169 281.816C185 275.396 186.192 268.625 187.734 261.494C189.277 254.243 191.12 247.111 193.263 240.1C195.527 232.969 198.081 226.549 200.935 220.85C203.79 215.031 206.884 210.394 210.21 206.949C213.655 203.503 217.341 201.781 221.267 201.781C226.145 201.781 229.83 203.924 232.324 208.201C234.938 212.357 236.25 218.957 236.25 227.992C236.25 232.388 235.83 237.797 234.998 244.217V244.207Z" fill="#FE240B"/>
<path d="M297.907 38.4749L301.472 39.186C303.846 39.6567 305.339 40.3178 305.929 41.1491C306.52 41.9804 306.52 43.643 305.929 46.1369L281.671 150.961C281.201 153.455 280.42 155.178 279.348 156.129C278.396 156.96 276.614 157.551 273.999 157.912L270.434 158.443C268.05 158.803 266.868 159.635 266.868 160.937C266.868 162.128 267.7 162.719 269.362 162.719H331.429C334.284 162.719 336.067 161.357 336.778 158.623L345.872 126.893C346.463 124.87 345.872 123.859 344.089 123.859C342.777 123.859 341.826 124.63 341.235 126.172L336.958 136.158C334.344 142.217 331.429 146.855 328.214 150.06C325.119 153.265 321.794 155.468 318.229 156.66C314.783 157.732 311.268 158.262 307.702 158.262C301.873 158.262 298.067 157.311 296.284 155.408C294.502 153.505 294.081 150.42 295.032 146.133L305.379 101.393C305.739 99.7308 306.801 98.8995 308.594 98.8995H317.508C320.242 98.8995 322.145 99.5505 323.216 100.863C324.408 102.165 324.939 104.899 324.819 109.065L324.639 117.799C324.639 119.341 325.35 120.113 326.782 120.113C328.214 120.113 329.216 119.101 329.817 117.078L339.091 76.9651C339.332 76.0137 339.212 75.3025 338.731 74.8218C338.37 74.2309 337.839 73.9304 337.128 73.9304C335.816 73.9304 334.865 74.7016 334.274 76.244L330.348 85.158C327.964 90.7467 324.168 93.5411 318.93 93.5411H309.836C308.173 93.5411 307.512 92.7098 307.872 91.0472L317.678 48.0899C318.509 44.6446 320.001 42.2708 322.135 40.9588C324.278 39.5366 327.724 38.8154 332.481 38.8154C336.637 38.8154 340.273 39.5265 343.358 40.9588C346.573 42.381 348.947 44.8248 350.489 48.2702C352.152 51.7156 352.693 56.4731 352.092 62.5326L351.551 68.7723C351.31 70.3147 352.032 71.0859 353.694 71.0859C355.237 71.0859 356.188 70.0744 356.549 68.0512L362.077 38.4549C362.668 35.7206 361.426 34.3585 358.331 34.3585H298.758C296.615 34.3585 295.543 35.0696 295.543 36.5018C295.543 37.4533 296.314 38.1043 297.867 38.4649L297.907 38.4749Z" fill="#FE240B"/>
<path d="M169.286 162.719H201.035C201.947 162.719 202.648 162.579 203.179 162.319C203.589 162.579 204.18 162.719 204.961 162.719H242.6C244.623 162.719 245.635 162.008 245.635 160.576C245.635 159.384 244.924 158.733 243.492 158.613L234.037 157.361C231.653 157 230.171 156.349 229.58 155.398C228.989 154.326 228.989 152.543 229.58 150.05L240.998 101.383C241.358 99.7208 242.42 98.8895 244.213 98.8895H250.633C253.367 98.8895 255.27 99.5405 256.342 100.853C257.414 102.155 257.944 104.889 257.944 109.055V117.609C257.944 119.151 258.655 119.922 260.088 119.922C261.39 119.922 262.351 118.911 262.942 116.888L272.217 77.1354C272.457 76.1839 272.337 75.4728 271.856 74.9921C271.385 74.4011 270.844 74.1007 270.254 74.1007C269.542 74.1007 269.002 74.341 268.651 74.8118C268.291 75.1723 267.94 75.7032 267.579 76.4143L263.473 85.148C260.979 90.7367 257.173 93.5311 252.055 93.5311H245.455C243.792 93.5311 243.131 92.6998 243.492 91.0372L253.127 48.9713C253.958 45.5259 255.561 42.9719 257.944 41.3093C260.318 39.6467 264.064 38.8154 269.182 38.8154C274.3 38.8154 278.276 40.7184 281.491 44.5244C284.706 48.3303 286.008 54.3297 285.417 62.5326L285.057 68.7723C284.816 70.3147 285.527 71.0859 287.2 71.0859C288.743 71.0859 289.694 70.0744 290.055 68.0512L295.403 38.4549C295.994 35.7206 294.812 34.3585 291.837 34.3585H234.407C233.496 34.3585 232.795 34.4987 232.264 34.7591C231.853 34.4987 231.263 34.3585 230.481 34.3585H198.732C196.588 34.3585 195.517 35.0696 195.517 36.5018C195.517 37.4533 196.288 38.1043 197.84 38.4649L201.406 39.176C203.79 39.6467 205.272 40.3078 205.863 41.1391C206.454 41.9704 206.454 43.633 205.863 46.1269L181.605 150.951C181.124 153.445 180.353 155.168 179.281 156.119C178.33 156.95 176.547 157.541 173.933 157.902L170.367 158.433C167.994 158.793 166.802 159.625 166.802 160.927C166.802 162.118 167.633 162.709 169.296 162.709L169.286 162.719ZM193.904 150.961L218.162 46.1369C218.753 43.643 219.524 41.9804 220.486 41.1491C221.437 40.1976 223.22 39.5466 225.834 39.186L229.4 38.6552C230.511 38.4849 231.343 38.2145 231.934 37.8439C232.314 38.1143 232.825 38.3247 233.496 38.4749L237.062 39.186C239.445 39.6567 240.928 40.3178 241.519 41.1491C242.11 41.9804 242.11 43.643 241.519 46.1369L217.261 150.961C216.79 153.455 216.009 155.178 214.937 156.129C213.986 156.96 212.203 157.551 209.589 157.912L206.023 158.443C204.911 158.613 204.08 158.883 203.489 159.254C203.109 158.984 202.598 158.773 201.927 158.623L198.361 157.912C195.977 157.441 194.495 156.78 193.904 155.949C193.433 155.117 193.433 153.455 193.904 150.961Z" fill="#FE240B"/>
<path d="M92.2951 112.931C92.1749 112.951 92.0547 112.982 91.9245 113.002C92.1548 112.951 92.3952 112.921 92.6256 112.871C92.5154 112.891 92.4052 112.901 92.2951 112.921V112.931Z" fill="#FE240B"/>
<path d="M100.197 403.907C100.197 403.907 100.268 403.967 100.308 403.997C100.248 403.947 100.187 403.897 100.127 403.847C100.157 403.867 100.177 403.887 100.197 403.917V403.907Z" fill="#FE240B"/>
<path d="M162.295 471.372L162.805 468.007C164.097 459.604 163.847 450.48 162.385 440.805C161.433 434.044 159.851 427.644 157.357 421.955C167.673 415.355 173.282 404.648 175.445 392.379C178.72 373.8 172.751 356.913 159.53 342.661C157.076 340.017 154.452 337.563 151.668 335.31C153.17 333.076 154.502 330.692 155.704 328.238C158.739 322.039 160.943 315.839 162.024 309.669C164.128 297.791 162.866 285.812 158.639 273.994L155.965 266.482L120.74 260.272C119.498 260.052 118.266 259.861 117.034 259.681L126.449 206.318C127.33 201.34 127.41 196.502 126.679 191.875L138.287 193.918L143.105 190.142C148.523 185.896 152.569 180.006 155.704 173.586C158.739 167.397 160.943 161.187 162.024 155.027C164.128 143.139 162.866 131.17 158.639 119.351L155.965 111.84L120.74 105.63C119.498 105.41 118.266 105.209 117.034 105.039L126.449 51.6655C128.782 38.4549 125.497 26.1656 116.263 16.3503L116.162 16.2401L116.052 16.1399C108.07 8.00721 97.8237 3.18967 86.1955 1.14647C78.5035 -0.21566 70.7914 -0.365895 63.0994 0.705782C55.3973 1.7374 48.186 4.02097 41.7259 7.79688L36.2373 11.0019L15.2344 130.108C13.2413 141.366 14.1628 152.804 20.8733 162.209L20.9033 162.259L20.9434 162.299C24.6392 167.407 29.3966 171.153 34.8051 173.797L15.2344 284.75C13.2413 296.008 14.1628 307.456 20.8733 316.861L20.9033 316.901L20.9434 316.951C25.4204 323.12 31.4398 327.307 38.2805 329.951C18.4795 343.803 6.62096 364.736 1.97368 391.077C-2.83384 418.349 0.982128 442.788 15.1743 462.859C28.9058 482.66 49.9588 494.368 76.3902 499.026C95.0494 502.311 112.877 501.049 129.533 494.819C136.054 492.415 142.033 489.451 147.331 485.835C152.359 482.46 156.926 478.614 160.271 474.107L162.295 471.372ZM32.0407 154.246C28.2248 148.898 27.123 141.646 28.7456 132.492L48.6467 19.6354C53.3441 16.8911 58.7726 15.1083 64.9523 14.2971C71.2121 13.4157 77.5019 13.5359 83.8118 14.6476C93.1264 16.2902 100.608 19.986 106.267 25.745C112.346 32.2051 114.57 40.0574 112.937 49.2918L101.81 112.411C101.109 112.351 100.408 112.32 99.7067 112.3H99.1358C98.5448 112.29 97.9539 112.3 97.353 112.331C97.2328 112.331 97.1126 112.331 96.9924 112.331C96.2913 112.371 95.5902 112.441 94.8791 112.521C94.7088 112.541 94.5286 112.571 94.3583 112.591C93.7874 112.671 93.2065 112.761 92.6356 112.861C92.3952 112.901 92.1649 112.941 91.9345 112.992C91.8744 113.002 91.8143 113.012 91.7542 113.022C91.7242 113.022 91.7041 113.032 91.6741 113.042C91.614 113.052 91.5539 113.062 91.4938 113.082C91.2134 113.142 90.9329 113.212 90.6525 113.282C90.6224 113.282 90.5924 113.292 90.5623 113.302C90.3921 113.342 90.2318 113.382 90.0616 113.422C89.5207 113.552 88.9799 113.703 88.449 113.863C83.932 115.135 81.4881 116.838 81.1076 118.991C81.0875 119.151 81.0675 119.311 81.0575 119.462C81.0575 119.512 81.0675 119.562 81.0675 119.612C81.0675 119.682 81.0675 119.752 81.0675 119.812C81.0675 119.742 81.0675 119.682 81.0675 119.612C81.0675 119.702 81.0675 119.792 81.0675 119.882V119.902C81.0875 120.123 81.1376 120.333 81.2077 120.543C81.2177 120.593 81.2378 120.644 81.2578 120.694C81.3279 120.884 81.408 121.084 81.5182 121.275L81.5482 121.335C81.6784 121.545 81.8187 121.755 81.9889 121.956C82.029 122.006 82.0691 122.056 82.1091 122.106C82.2894 122.306 82.4797 122.516 82.7 122.717C82.7401 122.687 82.7902 122.667 82.8403 122.647C82.8002 122.677 82.7501 122.697 82.7101 122.717C82.7501 122.687 82.8002 122.667 82.8403 122.647C83.4813 122.286 84.1423 121.946 84.8234 121.625C84.9035 121.585 84.9736 121.545 85.0537 121.515C84.9736 121.555 84.9035 121.595 84.8234 121.625C84.9035 121.585 84.9736 121.545 85.0537 121.505C85.234 121.425 85.4243 121.335 85.6046 121.254C86.4058 120.894 87.2271 120.553 88.0785 120.253C88.0785 120.253 88.0885 120.253 88.0985 120.243C88.3088 120.173 88.5191 120.103 88.7295 120.033C88.7996 120.013 88.8697 119.982 88.9498 119.962C89.2903 119.852 89.6209 119.732 89.9614 119.632C89.9814 119.632 90.0115 119.612 90.0415 119.612C90.2619 119.552 90.4822 119.492 90.7026 119.432C90.7026 119.432 90.7226 119.432 90.7326 119.432C91.2033 119.301 91.6741 119.171 92.1548 119.061C92.4253 118.991 92.7057 118.931 92.9861 118.871C93.4368 118.781 93.8976 118.68 94.3583 118.6C94.3883 118.6 94.4184 118.59 94.4384 118.58C94.6688 118.54 94.8991 118.5 95.1295 118.46C94.9993 118.48 94.8691 118.49 94.7489 118.51C94.8791 118.49 94.9993 118.48 95.1295 118.45C95.9608 118.32 96.8121 118.2 97.6735 118.1C97.8037 118.09 97.9239 118.069 98.0441 118.059C99.0256 117.949 100.027 117.889 101.039 117.839C101.059 117.839 101.079 117.839 101.089 117.839C101.299 117.839 101.519 117.819 101.73 117.819H101.84C102.541 117.789 103.242 117.779 103.963 117.779H104.765C105.736 117.789 106.728 117.819 107.729 117.869C107.759 117.869 107.779 117.879 107.799 117.879C108.781 117.929 109.792 118.009 110.804 118.11C111.094 118.14 111.395 118.17 111.685 118.2C112.487 118.28 113.288 118.38 114.099 118.48C114.249 118.5 114.4 118.52 114.55 118.54C114.4 118.52 114.249 118.51 114.099 118.49C114.4 118.53 114.7 118.57 115.011 118.61C114.92 118.6 114.82 118.58 114.73 118.57C114.83 118.59 114.92 118.6 115.011 118.61C116.112 118.771 117.234 118.941 118.366 119.141L145.729 123.969C149.234 133.784 150.166 143.349 148.523 152.654C147.712 157.271 145.999 162.249 143.395 167.577C140.781 172.905 137.866 176.831 134.651 179.365L120.95 176.952C119.608 174.878 118.055 172.895 116.273 171.002L116.062 170.792C108.08 162.669 97.8337 157.852 86.2055 155.799C78.5135 154.446 70.8014 154.296 63.1094 155.368C55.6277 156.359 48.6067 158.543 42.2868 162.148C37.94 160.296 34.5246 157.661 32.0508 154.256L32.0407 154.246ZM101.61 117.819C101.519 117.819 101.429 117.819 101.349 117.819C101.289 117.819 101.229 117.819 101.169 117.829C101.229 117.829 101.289 117.819 101.349 117.809H101.62L101.61 117.819ZM90.6325 119.462C90.4722 119.502 90.312 119.542 90.1517 119.592C90.1517 119.592 90.1317 119.592 90.1217 119.592H90.1417C90.3019 119.552 90.4622 119.512 90.6224 119.462H90.6325ZM88.5091 120.123C88.3889 120.163 88.2688 120.193 88.1486 120.243H88.1285C88.1285 120.243 88.1386 120.243 88.1486 120.233C88.2688 120.193 88.3889 120.153 88.5091 120.123ZM32.0407 308.898C28.2248 303.54 27.123 296.288 28.7456 287.134L47.9857 178.003L48.6467 174.277C53.3441 171.543 58.7726 169.76 64.9523 168.939C67.4061 168.599 69.88 168.408 72.3438 168.378C76.1598 168.308 79.9858 168.619 83.8118 169.29C87.4675 169.931 90.8428 170.892 93.9376 172.184C98.7251 174.157 102.832 176.892 106.267 180.387C108.821 183.101 110.694 186.056 111.886 189.261C113.538 193.688 113.889 198.575 112.937 203.934L101.81 267.053C101.109 266.993 100.408 266.963 99.7067 266.953C99.5164 266.953 99.3261 266.953 99.1458 266.953C98.5448 266.953 97.9339 266.953 97.3329 266.993C97.2228 266.993 97.1126 266.993 96.9924 267.003C96.2913 267.043 95.5802 267.103 94.8691 267.193C94.7088 267.213 94.5386 267.233 94.3783 267.253C93.7974 267.333 93.2165 267.423 92.6356 267.523C92.5955 267.523 92.5555 267.533 92.5254 267.543C92.4553 267.553 92.3752 267.563 92.3051 267.573C92.1849 267.593 92.0747 267.624 91.9545 267.644C91.8744 267.654 91.8043 267.674 91.7242 267.684C91.6841 267.684 91.644 267.704 91.594 267.714C91.5639 267.714 91.5238 267.724 91.4938 267.734C91.3936 267.754 91.2835 267.784 91.1833 267.804C91.0131 267.844 90.8428 267.884 90.6625 267.924C90.4622 267.974 90.2619 268.014 90.0616 268.074C89.5207 268.204 88.9899 268.355 88.4591 268.505C83.942 269.777 81.4982 271.49 81.1176 273.643C81.0975 273.803 81.0775 273.953 81.0675 274.114C81.0675 274.164 81.0775 274.214 81.0775 274.264C81.0775 274.354 81.0775 274.444 81.0775 274.534V274.554C81.0775 274.554 81.0775 274.554 81.0775 274.564C81.0975 274.775 81.1476 274.985 81.2177 275.205C81.2277 275.245 81.2478 275.296 81.2678 275.346C81.3379 275.546 81.418 275.736 81.5282 275.937C81.5382 275.957 81.5482 275.977 81.5583 275.997C81.6885 276.207 81.8287 276.407 81.9989 276.618C82.039 276.668 82.0791 276.718 82.1191 276.758C82.2994 276.968 82.4897 277.169 82.7101 277.379C82.8803 277.279 83.0506 277.199 83.2209 277.098C83.8218 276.778 84.4227 276.457 85.0437 276.167C84.4227 276.457 83.8218 276.768 83.2209 277.088C83.8118 276.758 84.4227 276.457 85.0337 276.157C85.224 276.077 85.4143 275.987 85.6046 275.897C86.4058 275.536 87.2171 275.205 88.0584 274.895C88.0684 274.895 88.0785 274.895 88.0985 274.885C88.0885 274.885 88.0785 274.895 88.0584 274.905C88.3589 274.795 88.6594 274.705 88.9699 274.605C88.8697 274.635 88.7796 274.665 88.6794 274.695C88.7796 274.665 88.8797 274.635 88.9799 274.594C89.3104 274.484 89.6309 274.374 89.9714 274.274C90.2318 274.194 90.4922 274.134 90.7526 274.054C90.5523 274.114 90.342 274.154 90.1417 274.214C90.1116 274.214 90.0816 274.234 90.0516 274.244C90.0415 274.244 90.0315 274.244 90.0115 274.254C90.0215 274.254 90.0415 274.254 90.0516 274.244C90.0816 274.234 90.1116 274.224 90.1317 274.214C90.342 274.164 90.5523 274.114 90.7526 274.054C91.2033 273.933 91.6641 273.803 92.1248 273.693C92.4052 273.633 92.6957 273.573 92.9861 273.513C93.4368 273.413 93.8875 273.312 94.3483 273.232C94.3483 273.232 94.3683 273.232 94.3783 273.232C94.6187 273.192 94.8591 273.152 95.1095 273.112C95.0794 273.112 95.0394 273.122 94.9993 273.122C95.0293 273.122 95.0694 273.112 95.0994 273.102C95.9307 272.962 96.7821 272.842 97.6434 272.752C97.7736 272.732 97.9038 272.712 98.034 272.701C98.9955 272.601 99.9971 272.531 100.999 272.481C101.069 272.481 101.139 272.481 101.199 272.471C101.129 272.471 101.069 272.481 100.999 272.481C101.269 272.471 101.55 272.461 101.82 272.451H101.84C102.511 272.431 103.192 272.421 103.883 272.411H104.755C105.716 272.431 106.688 272.451 107.679 272.511C107.759 272.511 107.839 272.521 107.909 272.521C108.841 272.581 109.782 272.651 110.744 272.742C111.064 272.772 111.395 272.812 111.725 272.842C112.477 272.922 113.228 273.012 113.999 273.112C113.999 273.112 113.999 273.112 114.009 273.112C114.34 273.152 114.67 273.202 115.011 273.242C114.88 273.222 114.75 273.202 114.62 273.182C114.43 273.152 114.239 273.142 114.059 273.112C114.249 273.132 114.43 273.152 114.62 273.172C114.75 273.192 114.88 273.222 115.011 273.232C116.102 273.393 117.204 273.563 118.326 273.763L145.689 278.581C149.194 288.396 150.126 297.961 148.483 307.276C147.672 311.893 145.959 316.861 143.355 322.189C142.373 324.182 141.362 325.975 140.3 327.567C130.435 321.989 119.117 318.183 106.617 315.979C95.2096 313.976 83.8819 313.896 72.7144 315.809C67.0555 316.74 61.607 318.193 56.3989 320.196L50.6699 319.184C42.1265 317.682 35.9068 314.247 32.0107 308.878L32.0407 308.898ZM155.334 405.62C155.244 405.74 155.143 405.84 155.043 405.96C154.823 406.21 154.603 406.471 154.372 406.721C154.232 406.862 154.092 407.002 153.952 407.142C153.751 407.342 153.551 407.543 153.351 407.743C153.19 407.893 153.03 408.033 152.88 408.174C152.68 408.354 152.469 408.524 152.269 408.704C152.099 408.845 151.928 408.975 151.758 409.115C151.548 409.275 151.337 409.436 151.127 409.596C150.947 409.726 150.767 409.846 150.586 409.976C150.436 410.087 150.276 410.187 150.116 410.287C150.096 410.287 150.086 410.307 150.065 410.317C149.485 410.698 148.894 411.058 148.273 411.389C147.602 411.739 146.901 412.06 146.189 412.37C146.059 412.43 145.929 412.48 145.789 412.54C145.098 412.821 144.397 413.081 143.675 413.322C143.655 413.322 143.635 413.332 143.625 413.342C143.505 413.382 143.375 413.422 143.245 413.462C143.265 413.462 143.295 413.452 143.315 413.442C143.295 413.442 143.265 413.452 143.245 413.462C142.594 413.672 141.923 413.862 141.242 414.023C141.172 414.043 141.101 414.063 141.031 414.083C140.29 414.263 139.539 414.413 138.778 414.544C138.618 414.574 138.447 414.604 138.277 414.634C137.506 414.754 136.725 414.864 135.923 414.944C135.863 414.954 135.793 414.954 135.733 414.964C134.972 415.034 134.201 415.084 133.419 415.114C133.249 415.114 133.089 415.134 132.919 415.134C132.097 415.165 131.256 415.175 130.405 415.154C130.254 415.154 130.094 415.144 129.934 415.134C129.153 415.114 128.362 415.074 127.56 415.014C127.42 415.004 127.29 415.004 127.15 414.994C126.268 414.924 125.367 414.824 124.455 414.714C124.255 414.684 124.045 414.654 123.844 414.634C122.903 414.503 121.961 414.363 120.99 414.193C120.289 414.073 119.588 413.923 118.887 413.752C118.656 413.702 118.426 413.642 118.206 413.582C117.735 413.462 117.264 413.332 116.793 413.191C116.523 413.111 116.253 413.031 115.982 412.941C115.561 412.801 115.131 412.661 114.71 412.51C114.43 412.41 114.149 412.31 113.869 412.2C113.719 412.14 113.558 412.08 113.408 412.03C113.558 412.09 113.719 412.14 113.869 412.2C113.518 412.07 113.178 411.929 112.827 411.779C112.777 411.759 112.717 411.729 112.667 411.709C112.346 411.579 112.036 411.449 111.725 411.308C111.335 411.128 110.944 410.948 110.554 410.758C110.253 410.607 109.943 410.457 109.642 410.297C109.252 410.097 108.851 409.886 108.46 409.666C108.17 409.496 107.869 409.335 107.579 409.165C107.178 408.935 106.778 408.684 106.377 408.434C106.097 408.254 105.816 408.093 105.536 407.913C105.466 407.863 105.386 407.813 105.305 407.763C105.255 407.733 105.205 407.693 105.155 407.653C105.205 407.683 105.255 407.723 105.315 407.763C105.396 407.813 105.476 407.863 105.546 407.913C105.075 407.603 104.604 407.282 104.144 406.952C103.983 406.841 103.813 406.731 103.653 406.611C103.052 406.17 102.481 405.74 101.94 405.309C101.89 405.279 101.84 405.239 101.79 405.199C101.269 404.788 100.778 404.388 100.318 403.997C100.278 403.967 100.237 403.937 100.207 403.907C100.177 403.887 100.157 403.857 100.127 403.837C99.7567 403.516 99.3962 403.196 99.0456 402.875C98.9955 402.825 98.9455 402.775 98.8854 402.725C98.5849 402.445 98.3045 402.174 98.034 401.904C97.9739 401.844 97.9239 401.794 97.8638 401.733C97.5733 401.433 97.2929 401.143 97.0325 400.852L96.8822 400.672C96.6519 400.411 96.4415 400.161 96.2412 399.911C96.2112 399.861 96.1711 399.82 96.1411 399.78C95.9207 399.5 95.7304 399.23 95.5502 398.959C95.5101 398.899 95.47 398.839 95.43 398.769C95.2697 398.528 95.1195 398.278 94.9893 398.038C94.9793 398.008 94.9592 397.988 94.9492 397.958C94.809 397.697 94.6988 397.447 94.5887 397.196C94.5686 397.136 94.5486 397.076 94.5185 397.016C94.4284 396.766 94.3483 396.525 94.2882 396.275C94.3282 396.005 94.3783 395.754 94.4284 395.494C94.4985 395.123 94.5586 394.743 94.6287 394.372C94.6287 394.332 94.6387 394.292 94.6487 394.252C94.6888 394.031 94.7289 393.811 94.7689 393.581C94.8591 393.11 94.9392 392.649 95.0293 392.199C95.0694 391.978 95.1095 391.758 95.1495 391.538C95.2397 391.057 95.3298 390.586 95.4199 390.125C95.45 389.965 95.48 389.805 95.5101 389.655C95.5702 389.314 95.6403 388.994 95.7004 388.673C95.7605 388.373 95.8206 388.062 95.8807 387.762C95.8807 387.732 95.8907 387.702 95.9007 387.671C95.9808 387.271 96.0609 386.88 96.1411 386.5C96.1511 386.42 96.1711 386.339 96.1912 386.259C96.2312 386.069 96.2613 385.889 96.3013 385.698C96.3714 385.358 96.4516 385.017 96.5217 384.697C96.5617 384.517 96.6018 384.326 96.6318 384.156C96.712 383.815 96.7821 383.495 96.8522 383.184C96.8923 383.034 96.9223 382.884 96.9524 382.744C97.0525 382.303 97.1627 381.862 97.2528 381.452C97.1126 381.352 96.8522 381.261 96.4716 381.201L95.6603 381.051C95.6603 381.051 95.6303 381.051 95.6203 381.051C95.5802 381.051 95.5401 381.041 95.5101 381.031C95.3699 381.011 95.2397 381.011 95.1095 381.001C95.0093 380.991 94.8891 380.981 94.789 380.981C94.6287 380.981 94.4685 381.001 94.3182 381.021C94.2181 381.031 94.1279 381.031 94.0378 381.051C93.8675 381.081 93.7173 381.131 93.557 381.191C93.4869 381.211 93.4168 381.231 93.3467 381.261C93.1264 381.352 92.916 381.462 92.7157 381.602C91.9946 382.113 91.1833 383.355 90.2719 385.338C90.2118 385.498 90.1417 385.688 90.0716 385.889C90.0516 385.949 90.0315 386.009 90.0115 386.069C89.9514 386.249 89.8913 386.44 89.8212 386.65C89.8212 386.7 89.7911 386.74 89.7811 386.8C89.701 387.05 89.6209 387.341 89.5407 387.641C89.5207 387.722 89.5007 387.812 89.4806 387.892C89.4105 388.142 89.3504 388.403 89.2803 388.683C89.2503 388.783 89.2303 388.873 89.2102 388.973C89.1201 389.324 89.0299 389.705 88.9398 390.105C88.9198 390.195 88.8997 390.296 88.8797 390.386C88.7996 390.726 88.7195 391.077 88.6494 391.447C88.6193 391.578 88.5893 391.718 88.5592 391.858C88.4591 392.299 88.3689 392.749 88.2688 393.23C88.2587 393.29 88.2487 393.35 88.2287 393.41C88.1386 393.901 88.0284 394.412 87.9282 394.933C87.8882 395.153 87.8481 395.363 87.798 395.584C87.758 395.794 87.7279 395.994 87.6878 396.205C87.6378 396.455 87.5877 396.716 87.5376 396.976C87.4975 397.206 87.4475 397.437 87.4074 397.677C87.3673 397.887 87.3273 398.108 87.2872 398.318C87.2071 398.769 87.117 399.22 87.0368 399.68C87.0068 399.851 86.9767 400.011 86.9467 400.191C86.8265 400.832 86.7063 401.493 86.5861 402.174C86.4159 403.166 86.2456 404.127 86.0954 405.069C86.0553 405.269 86.0252 405.459 85.9952 405.66C85.8349 406.571 85.6947 407.472 85.5545 408.354C85.5245 408.524 85.5044 408.704 85.4744 408.885C85.3943 409.405 85.3141 409.936 85.234 410.447C85.1939 410.677 85.1639 410.908 85.1338 411.138C85.0637 411.619 84.9936 412.09 84.9235 412.56C84.8935 412.821 84.8534 413.081 84.8133 413.342C84.7032 414.163 84.603 414.964 84.5029 415.745C84.4828 415.906 84.4628 416.076 84.4428 416.236C84.3426 416.997 84.2625 417.739 84.1824 418.45C84.1723 418.57 84.1623 418.69 84.1423 418.81C84.0722 419.481 84.0121 420.142 83.952 420.773C83.942 420.863 83.932 420.954 83.922 421.034C83.8719 421.705 83.8218 422.346 83.7717 422.977C83.7617 423.167 83.7517 423.357 83.7317 423.548C83.7317 423.688 83.7216 423.828 83.7116 423.968C83.7016 424.169 83.6916 424.369 83.6816 424.559C83.6415 425.19 83.6215 425.791 83.6115 426.372C83.6015 426.462 83.6015 426.542 83.6015 426.632C83.5914 427.223 83.5914 427.794 83.5914 428.335V428.415C83.6015 428.956 83.6215 429.457 83.6515 429.928C83.6515 429.978 83.6515 430.038 83.6615 430.088C83.6916 430.549 83.7317 430.989 83.7717 431.4C83.7817 431.47 83.7917 431.54 83.8018 431.6C83.8518 432.001 83.9119 432.371 83.972 432.722C83.9921 432.782 84.0021 432.842 84.0121 432.892C84.0822 433.243 84.1623 433.563 84.2525 433.854C84.2625 433.884 84.2725 433.914 84.2825 433.954C84.4328 434.415 84.623 434.785 84.8133 435.116C84.8734 435.206 84.9235 435.316 84.9836 435.406C85.0036 435.436 85.0237 435.456 85.0437 435.486C85.0938 435.556 85.1439 435.607 85.204 435.667C85.244 435.707 85.2741 435.747 85.3141 435.787C85.3742 435.837 85.4343 435.887 85.4944 435.927C85.5345 435.957 85.5745 435.987 85.6146 436.017C85.6847 436.057 85.7548 436.087 85.8349 436.127C85.865 436.137 85.895 436.167 85.9351 436.177C86.0453 436.217 86.1554 436.258 86.2756 436.278C87.0468 436.408 87.778 436.338 88.4591 436.067L90.312 425.561C90.973 425.27 91.6641 424.99 92.3852 424.719C92.5054 424.669 92.6256 424.629 92.7458 424.579C93.3367 424.359 93.9476 424.159 94.5786 423.958C94.6087 423.958 94.6387 423.938 94.6688 423.928C94.819 423.878 94.9692 423.828 95.1295 423.778C95.5401 423.648 95.9808 423.538 96.4115 423.417C96.7921 423.307 97.1627 423.197 97.5633 423.097C97.5934 423.097 97.6134 423.087 97.6434 423.077C97.8437 423.027 98.0541 422.977 98.2644 422.927C98.9254 422.766 99.6065 422.606 100.298 422.466C100.618 422.396 100.949 422.336 101.279 422.276C101.319 422.276 101.359 422.256 101.399 422.256C101.96 422.145 102.531 422.045 103.122 421.945H103.142C103.493 421.885 103.853 421.835 104.204 421.775C104.845 421.675 105.496 421.585 106.157 421.494C106.527 421.454 106.888 421.404 107.268 421.354C107.98 421.274 108.711 421.194 109.452 421.124C109.782 421.094 110.113 421.054 110.443 421.034C111.535 420.934 112.637 420.853 113.769 420.783C114.91 420.723 116.052 420.673 117.184 420.633C117.525 420.623 117.875 420.623 118.226 420.613C118.366 420.613 118.516 420.613 118.656 420.603C119.247 420.593 119.828 420.583 120.419 420.573C120.489 420.573 120.559 420.573 120.629 420.573C120.98 420.563 121.32 420.563 121.671 420.573C122.452 420.573 123.233 420.573 124.015 420.593C124.355 420.603 124.696 420.603 125.036 420.613C125.968 420.643 126.909 420.683 127.831 420.723C127.981 420.733 128.131 420.733 128.281 420.743C129.343 420.803 130.405 420.873 131.466 420.964C131.777 420.984 132.087 421.024 132.398 421.044C133.149 421.114 133.9 421.184 134.641 421.264C135.012 421.304 135.372 421.354 135.743 421.394C136.464 421.484 137.185 421.575 137.906 421.675C138.237 421.715 138.567 421.765 138.888 421.805C139.92 421.965 140.941 422.125 141.953 422.296C142.333 422.847 142.684 423.417 143.034 424.008C143.105 424.139 143.175 424.259 143.245 424.379C143.575 424.96 143.896 425.571 144.206 426.192C144.256 426.312 144.316 426.442 144.377 426.562C144.457 426.733 144.537 426.913 144.617 427.083C144.537 426.903 144.457 426.733 144.367 426.552C144.607 427.063 144.837 427.594 145.058 428.125C145.078 428.185 145.108 428.235 145.128 428.295C145.188 428.435 145.258 428.586 145.318 428.736C145.598 429.427 145.859 430.148 146.109 430.899C146.169 431.079 146.229 431.27 146.29 431.45C146.49 432.061 146.68 432.682 146.86 433.323C146.921 433.543 146.981 433.754 147.041 433.974C147.261 434.775 147.471 435.596 147.662 436.448C147.702 436.598 147.732 436.758 147.762 436.919C147.922 437.65 148.072 438.401 148.213 439.162C148.263 439.422 148.313 439.673 148.353 439.933C148.523 440.855 148.673 441.796 148.814 442.778C150.126 451.491 150.276 459.213 149.244 465.934C147.161 468.738 143.966 471.583 139.649 474.477C135.403 477.372 130.435 479.876 124.756 481.959C110.644 487.247 95.3198 488.439 78.7739 485.515C55.0668 481.338 37.6095 471.162 26.4219 454.997C14.7937 438.591 11.148 418.079 15.4848 393.461C19.8416 368.762 30.959 350.734 48.837 339.376C51.7716 337.473 54.8164 335.82 57.9813 334.408C63.3297 332.014 69.0086 330.332 75.008 329.35C84.593 327.708 94.3383 327.758 104.274 329.51C119.698 332.225 132.388 337.523 142.333 345.405C144.887 347.418 147.271 349.622 149.465 351.986C160.201 363.554 164.358 376.224 161.934 389.995C161.824 390.616 161.704 391.227 161.574 391.828C161.533 392.008 161.483 392.199 161.443 392.379C161.343 392.789 161.253 393.19 161.153 393.581C161.093 393.801 161.033 394.011 160.973 394.222C160.882 394.572 160.782 394.923 160.672 395.273C160.612 395.494 160.532 395.714 160.462 395.934C160.362 396.255 160.251 396.575 160.141 396.886C160.061 397.106 159.981 397.327 159.901 397.547C159.791 397.847 159.671 398.148 159.55 398.448C159.46 398.659 159.37 398.869 159.28 399.069C159.16 399.36 159.03 399.65 158.889 399.931C158.799 400.131 158.699 400.331 158.609 400.532C158.469 400.812 158.318 401.082 158.178 401.353C158.078 401.543 157.978 401.733 157.868 401.914C157.717 402.194 157.547 402.465 157.387 402.735C157.277 402.895 157.187 403.066 157.076 403.226C156.886 403.526 156.676 403.827 156.466 404.117C156.385 404.237 156.315 404.358 156.235 404.468C155.945 404.858 155.644 405.249 155.334 405.62ZM102.481 422.035C102.651 422.015 102.822 421.985 102.992 421.955C102.822 421.985 102.651 422.005 102.481 422.035C102.241 422.075 102.01 422.125 101.78 422.175C102.01 422.125 102.241 422.085 102.481 422.035ZM94.4785 395.163C94.5085 395.003 94.5386 394.843 94.5586 394.692C94.5786 394.622 94.5886 394.542 94.5987 394.462C94.5886 394.542 94.5686 394.612 94.5586 394.692C94.5286 394.843 94.4985 395.013 94.4785 395.163ZM95.7104 388.583C95.7505 388.353 95.8005 388.112 95.8406 387.892C95.8406 387.862 95.8506 387.832 95.8606 387.802C95.8606 387.832 95.8506 387.862 95.8406 387.892C95.8005 388.112 95.7505 388.353 95.7004 388.583H95.7104Z" fill="#FE240B"/>
<path d="M85.4544 408.885C85.4844 408.704 85.5044 408.534 85.5345 408.354C85.5345 408.394 85.5245 408.434 85.5144 408.474C85.4944 408.614 85.4744 408.744 85.4544 408.885Z" fill="#FE240B"/>
<path d="M87.2672 398.328C87.3072 398.108 87.3473 397.897 87.3874 397.687C87.3673 397.787 87.3473 397.887 87.3273 397.988C87.3073 398.098 87.2872 398.218 87.2672 398.328Z" fill="#FE240B"/>
<path d="M85.0337 435.486C85.0337 435.486 84.9936 435.436 84.9736 435.406C84.9836 435.416 84.9936 435.446 85.0036 435.456C85.0036 435.466 85.0237 435.476 85.0337 435.486Z" fill="#FE240B"/>
<path d="M83.6615 424.399C83.6615 424.459 83.6615 424.509 83.6615 424.569C83.6615 424.369 83.6816 424.179 83.6916 423.978C83.6916 424.068 83.6816 424.169 83.6716 424.259C83.6716 424.309 83.6716 424.349 83.6716 424.399H83.6615Z" fill="#FE240B"/>
</svg>
