<svg width="1440" height="30" viewBox="0 0 1440 30" fill="none" xmlns="http://www.w3.org/2000/svg">
<mask id="mask0_546_18118" style="mask-type:alpha" maskUnits="userSpaceOnUse" x="0" y="0" width="1440" height="30">
<rect width="1440" height="30" fill="white"/>
</mask>
<g mask="url(#mask0_546_18118)">
<mask id="path-2-inside-1_546_18118" fill="white">
<path d="M0 0H1440V30H0V0Z"/>
</mask>
<path d="M0 0H1440V30H0V0Z" fill="white"/>
<path d="M0 0V1H1440V0V-1H0V0ZM1440 30V29H0V30V31H1440V30Z" fill="#FE240B" mask="url(#path-2-inside-1_546_18118)"/>
<path d="M14.8977 18.12C14.331 18.12 13.841 17.97 13.4277 17.67C13.021 17.37 12.7077 16.95 12.4877 16.41C12.2743 15.87 12.1677 15.2333 12.1677 14.5C12.1677 13.7733 12.2743 13.14 12.4877 12.6C12.7077 12.0533 13.021 11.63 13.4277 11.33C13.841 11.03 14.331 10.88 14.8977 10.88C15.6177 10.88 16.1977 11.08 16.6377 11.48C17.0777 11.8733 17.3343 12.4 17.4077 13.06H16.4777C16.411 12.6667 16.2443 12.3367 15.9777 12.07C15.711 11.8033 15.351 11.67 14.8977 11.67C14.3177 11.67 13.861 11.9233 13.5277 12.43C13.1943 12.93 13.0277 13.62 13.0277 14.5C13.0277 15.3867 13.1943 16.08 13.5277 16.58C13.861 17.08 14.3177 17.33 14.8977 17.33C15.371 17.33 15.7343 17.2033 15.9877 16.95C16.2477 16.6967 16.411 16.37 16.4777 15.97H17.4077C17.301 16.6367 17.0343 17.1633 16.6077 17.55C16.1877 17.93 15.6177 18.12 14.8977 18.12ZM20.8438 18.12C20.2771 18.12 19.7904 17.97 19.3838 17.67C18.9771 17.37 18.6638 16.95 18.4438 16.41C18.2304 15.8633 18.1238 15.2267 18.1238 14.5C18.1238 13.7733 18.2304 13.14 18.4438 12.6C18.6638 12.0533 18.9771 11.63 19.3838 11.33C19.7904 11.03 20.2771 10.88 20.8438 10.88C21.4104 10.88 21.8971 11.03 22.3038 11.33C22.7104 11.63 23.0204 12.0533 23.2338 12.6C23.4538 13.14 23.5638 13.7733 23.5638 14.5C23.5638 15.2267 23.4538 15.8633 23.2338 16.41C23.0204 16.95 22.7104 17.37 22.3038 17.67C21.8971 17.97 21.4104 18.12 20.8438 18.12ZM20.8438 17.33C21.3971 17.33 21.8438 17.0833 22.1838 16.59C22.5304 16.0967 22.7038 15.4 22.7038 14.5C22.7038 13.6 22.5304 12.9033 22.1838 12.41C21.8438 11.9167 21.3971 11.67 20.8438 11.67C20.2838 11.67 19.8338 11.9167 19.4938 12.41C19.1538 12.9033 18.9838 13.6 18.9838 14.5C18.9838 15.4 19.1538 16.0967 19.4938 16.59C19.8338 17.0833 20.2838 17.33 20.8438 17.33ZM24.3398 18V11H25.2398L26.8398 14.33L28.4398 11H29.3398V18H28.5198V12.62L27.1598 15.45H26.5198L25.1598 12.63V18H24.3398ZM30.8259 18V17.27H32.4159V11.73H30.8259V11H34.8459V11.73H33.2559V17.27H34.8459V18H30.8259ZM36.402 18V11H37.262L40.442 16.53V11H41.272V18H40.402L37.222 12.47V18H36.402ZM44.7581 18.12C44.2648 18.12 43.8248 17.9767 43.4381 17.69C43.0515 17.3967 42.7481 16.98 42.5281 16.44C42.3148 15.9 42.2081 15.2533 42.2081 14.5C42.2081 13.7533 42.3181 13.11 42.5381 12.57C42.7581 12.03 43.0681 11.6133 43.4681 11.32C43.8748 11.0267 44.3548 10.88 44.9081 10.88C45.5681 10.88 46.1048 11.0733 46.5181 11.46C46.9381 11.8467 47.1881 12.3667 47.2681 13.02H46.3381C46.2715 12.62 46.1148 12.2967 45.8681 12.05C45.6281 11.7967 45.3081 11.67 44.9081 11.67C44.3348 11.67 43.8848 11.92 43.5581 12.42C43.2315 12.92 43.0681 13.6133 43.0681 14.5C43.0681 15.4 43.2315 16.0967 43.5581 16.59C43.8848 17.0833 44.3081 17.33 44.8281 17.33C45.2015 17.33 45.5081 17.22 45.7481 17C45.9881 16.7733 46.1681 16.4867 46.2881 16.14C46.4148 15.7867 46.4848 15.4233 46.4981 15.05H44.9381V14.33H47.3581V18H46.5881L46.5181 16.94H46.4781C46.3381 17.3 46.1315 17.5867 45.8581 17.8C45.5915 18.0133 45.2248 18.12 44.7581 18.12ZM56.8903 18.12C56.397 18.12 55.967 18.0267 55.6003 17.84C55.2403 17.6533 54.9603 17.3933 54.7603 17.06C54.567 16.7267 54.467 16.3367 54.4603 15.89H55.3403C55.347 16.29 55.4803 16.6367 55.7403 16.93C56.007 17.2167 56.3903 17.36 56.8903 17.36C57.3503 17.36 57.7036 17.25 57.9503 17.03C58.2036 16.8033 58.3303 16.5333 58.3303 16.22C58.3303 15.96 58.2703 15.7433 58.1503 15.57C58.0303 15.39 57.8336 15.2333 57.5603 15.1C57.2936 14.96 56.9336 14.8167 56.4803 14.67C55.8403 14.4767 55.3736 14.2133 55.0803 13.88C54.787 13.5467 54.6403 13.1333 54.6403 12.64C54.6403 12.3067 54.727 12.0067 54.9003 11.74C55.0736 11.4733 55.3236 11.2633 55.6503 11.11C55.977 10.9567 56.3736 10.88 56.8403 10.88C57.2803 10.88 57.6636 10.9633 57.9903 11.13C58.3236 11.29 58.5803 11.5167 58.7603 11.81C58.947 12.1033 59.0403 12.44 59.0403 12.82H58.1603C58.1603 12.6333 58.1103 12.45 58.0103 12.27C57.9103 12.09 57.7603 11.94 57.5603 11.82C57.3603 11.7 57.107 11.64 56.8003 11.64C56.4336 11.64 56.127 11.73 55.8803 11.91C55.6336 12.0833 55.5103 12.3233 55.5103 12.63C55.5103 12.8633 55.5636 13.06 55.6703 13.22C55.7836 13.38 55.967 13.5267 56.2203 13.66C56.4736 13.7867 56.817 13.9233 57.2503 14.07C57.657 14.2033 58.0036 14.36 58.2903 14.54C58.5836 14.7133 58.807 14.93 58.9603 15.19C59.1203 15.45 59.2003 15.7733 59.2003 16.16C59.2003 16.54 59.1036 16.8767 58.9103 17.17C58.717 17.4633 58.447 17.6967 58.1003 17.87C57.7536 18.0367 57.3503 18.12 56.8903 18.12ZM62.8164 18.12C62.2497 18.12 61.7631 17.97 61.3564 17.67C60.9497 17.37 60.6364 16.95 60.4164 16.41C60.2031 15.8633 60.0964 15.2267 60.0964 14.5C60.0964 13.7733 60.2031 13.14 60.4164 12.6C60.6364 12.0533 60.9497 11.63 61.3564 11.33C61.7631 11.03 62.2497 10.88 62.8164 10.88C63.3831 10.88 63.8697 11.03 64.2764 11.33C64.6831 11.63 64.9931 12.0533 65.2064 12.6C65.4264 13.14 65.5364 13.7733 65.5364 14.5C65.5364 15.2267 65.4264 15.8633 65.2064 16.41C64.9931 16.95 64.6831 17.37 64.2764 17.67C63.8697 17.97 63.3831 18.12 62.8164 18.12ZM62.8164 17.33C63.3697 17.33 63.8164 17.0833 64.1564 16.59C64.5031 16.0967 64.6764 15.4 64.6764 14.5C64.6764 13.6 64.5031 12.9033 64.1564 12.41C63.8164 11.9167 63.3697 11.67 62.8164 11.67C62.2564 11.67 61.8064 11.9167 61.4664 12.41C61.1264 12.9033 60.9564 13.6 60.9564 14.5C60.9564 15.4 61.1264 16.0967 61.4664 16.59C61.8064 17.0833 62.2564 17.33 62.8164 17.33ZM68.8125 18.12C68.2458 18.12 67.7592 17.97 67.3525 17.67C66.9458 17.37 66.6325 16.95 66.4125 16.41C66.1992 15.8633 66.0925 15.2267 66.0925 14.5C66.0925 13.7733 66.1992 13.14 66.4125 12.6C66.6325 12.0533 66.9458 11.63 67.3525 11.33C67.7592 11.03 68.2458 10.88 68.8125 10.88C69.3792 10.88 69.8658 11.03 70.2725 11.33C70.6792 11.63 70.9892 12.0533 71.2025 12.6C71.4225 13.14 71.5325 13.7733 71.5325 14.5C71.5325 15.2267 71.4225 15.8633 71.2025 16.41C70.9892 16.95 70.6792 17.37 70.2725 17.67C69.8658 17.97 69.3792 18.12 68.8125 18.12ZM68.8125 17.33C69.3658 17.33 69.8125 17.0833 70.1525 16.59C70.4992 16.0967 70.6725 15.4 70.6725 14.5C70.6725 13.6 70.4992 12.9033 70.1525 12.41C69.8125 11.9167 69.3658 11.67 68.8125 11.67C68.2525 11.67 67.8025 11.9167 67.4625 12.41C67.1225 12.9033 66.9525 13.6 66.9525 14.5C66.9525 15.4 67.1225 16.0967 67.4625 16.59C67.8025 17.0833 68.2525 17.33 68.8125 17.33ZM72.3786 18V11H73.2386L76.4186 16.53V11H77.2486V18H76.3786L73.1986 12.47V18H72.3786ZM109.145 13.45H112.615V16.92H109.145V13.45ZM145.037 18L143.967 11H144.817L145.527 16.4L146.517 11H147.377L148.367 16.4L149.077 11H149.927L148.857 18H147.897L146.947 12.62L145.997 18H145.037ZM150.273 18L152.463 11H153.433L155.613 18H154.693L154.183 16.26H151.703L151.193 18H150.273ZM152.923 12.18L151.913 15.56H153.973L152.963 12.18H152.923ZM156.929 18V17.27H158.519V11.73H156.929V11H160.949V11.73H159.359V17.27H160.949V18H156.929ZM164.516 18V11.76H162.636V11H167.236V11.76H165.356V18H164.516ZM168.802 18V11H169.642V17.24H173.192V18H168.802ZM174.918 18V17.27H176.508V11.73H174.918V11H178.938V11.73H177.348V17.27H178.938V18H174.918ZM182.994 18.12C182.5 18.12 182.07 18.0267 181.704 17.84C181.344 17.6533 181.064 17.3933 180.864 17.06C180.67 16.7267 180.57 16.3367 180.564 15.89H181.444C181.45 16.29 181.584 16.6367 181.844 16.93C182.11 17.2167 182.494 17.36 182.994 17.36C183.454 17.36 183.807 17.25 184.054 17.03C184.307 16.8033 184.434 16.5333 184.434 16.22C184.434 15.96 184.374 15.7433 184.254 15.57C184.134 15.39 183.937 15.2333 183.664 15.1C183.397 14.96 183.037 14.8167 182.584 14.67C181.944 14.4767 181.477 14.2133 181.184 13.88C180.89 13.5467 180.744 13.1333 180.744 12.64C180.744 12.3067 180.83 12.0067 181.004 11.74C181.177 11.4733 181.427 11.2633 181.754 11.11C182.08 10.9567 182.477 10.88 182.944 10.88C183.384 10.88 183.767 10.9633 184.094 11.13C184.427 11.29 184.684 11.5167 184.864 11.81C185.05 12.1033 185.144 12.44 185.144 12.82H184.264C184.264 12.6333 184.214 12.45 184.114 12.27C184.014 12.09 183.864 11.94 183.664 11.82C183.464 11.7 183.21 11.64 182.904 11.64C182.537 11.64 182.23 11.73 181.984 11.91C181.737 12.0833 181.614 12.3233 181.614 12.63C181.614 12.8633 181.667 13.06 181.774 13.22C181.887 13.38 182.07 13.5267 182.324 13.66C182.577 13.7867 182.92 13.9233 183.354 14.07C183.76 14.2033 184.107 14.36 184.394 14.54C184.687 14.7133 184.91 14.93 185.064 15.19C185.224 15.45 185.304 15.7733 185.304 16.16C185.304 16.54 185.207 16.8767 185.014 17.17C184.82 17.4633 184.55 17.6967 184.204 17.87C183.857 18.0367 183.454 18.12 182.994 18.12ZM188.5 18V11.76H186.62V11H191.22V11.76H189.34V18H188.5ZM223.256 13.45H226.726V16.92H223.256V13.45ZM261.109 18.12C260.542 18.12 260.052 17.97 259.639 17.67C259.232 17.37 258.919 16.95 258.699 16.41C258.485 15.87 258.379 15.2333 258.379 14.5C258.379 13.7733 258.485 13.14 258.699 12.6C258.919 12.0533 259.232 11.63 259.639 11.33C260.052 11.03 260.542 10.88 261.109 10.88C261.829 10.88 262.409 11.08 262.849 11.48C263.289 11.8733 263.545 12.4 263.619 13.06H262.689C262.622 12.6667 262.455 12.3367 262.189 12.07C261.922 11.8033 261.562 11.67 261.109 11.67C260.529 11.67 260.072 11.9233 259.739 12.43C259.405 12.93 259.239 13.62 259.239 14.5C259.239 15.3867 259.405 16.08 259.739 16.58C260.072 17.08 260.529 17.33 261.109 17.33C261.582 17.33 261.945 17.2033 262.199 16.95C262.459 16.6967 262.622 16.37 262.689 15.97H263.619C263.512 16.6367 263.245 17.1633 262.819 17.55C262.399 17.93 261.829 18.12 261.109 18.12ZM267.055 18.12C266.488 18.12 266.001 17.97 265.595 17.67C265.188 17.37 264.875 16.95 264.655 16.41C264.441 15.8633 264.335 15.2267 264.335 14.5C264.335 13.7733 264.441 13.14 264.655 12.6C264.875 12.0533 265.188 11.63 265.595 11.33C266.001 11.03 266.488 10.88 267.055 10.88C267.621 10.88 268.108 11.03 268.515 11.33C268.921 11.63 269.231 12.0533 269.445 12.6C269.665 13.14 269.775 13.7733 269.775 14.5C269.775 15.2267 269.665 15.8633 269.445 16.41C269.231 16.95 268.921 17.37 268.515 17.67C268.108 17.97 267.621 18.12 267.055 18.12ZM267.055 17.33C267.608 17.33 268.055 17.0833 268.395 16.59C268.741 16.0967 268.915 15.4 268.915 14.5C268.915 13.6 268.741 12.9033 268.395 12.41C268.055 11.9167 267.608 11.67 267.055 11.67C266.495 11.67 266.045 11.9167 265.705 12.41C265.365 12.9033 265.195 13.6 265.195 14.5C265.195 15.4 265.365 16.0967 265.705 16.59C266.045 17.0833 266.495 17.33 267.055 17.33ZM270.551 18V11H271.451L273.051 14.33L274.651 11H275.551V18H274.731V12.62L273.371 15.45H272.731L271.371 12.63V18H270.551ZM277.037 18V17.27H278.627V11.73H277.037V11H281.057V11.73H279.467V17.27H281.057V18H277.037ZM282.613 18V11H283.473L286.653 16.53V11H287.483V18H286.613L283.433 12.47V18H282.613ZM290.969 18.12C290.476 18.12 290.036 17.9767 289.649 17.69C289.262 17.3967 288.959 16.98 288.739 16.44C288.526 15.9 288.419 15.2533 288.419 14.5C288.419 13.7533 288.529 13.11 288.749 12.57C288.969 12.03 289.279 11.6133 289.679 11.32C290.086 11.0267 290.566 10.88 291.119 10.88C291.779 10.88 292.316 11.0733 292.729 11.46C293.149 11.8467 293.399 12.3667 293.479 13.02H292.549C292.482 12.62 292.326 12.2967 292.079 12.05C291.839 11.7967 291.519 11.67 291.119 11.67C290.546 11.67 290.096 11.92 289.769 12.42C289.442 12.92 289.279 13.6133 289.279 14.5C289.279 15.4 289.442 16.0967 289.769 16.59C290.096 17.0833 290.519 17.33 291.039 17.33C291.412 17.33 291.719 17.22 291.959 17C292.199 16.7733 292.379 16.4867 292.499 16.14C292.626 15.7867 292.696 15.4233 292.709 15.05H291.149V14.33H293.569V18H292.799L292.729 16.94H292.689C292.549 17.3 292.342 17.5867 292.069 17.8C291.802 18.0133 291.436 18.12 290.969 18.12ZM303.101 18.12C302.608 18.12 302.178 18.0267 301.811 17.84C301.451 17.6533 301.171 17.3933 300.971 17.06C300.778 16.7267 300.678 16.3367 300.671 15.89H301.551C301.558 16.29 301.691 16.6367 301.951 16.93C302.218 17.2167 302.601 17.36 303.101 17.36C303.561 17.36 303.915 17.25 304.161 17.03C304.415 16.8033 304.541 16.5333 304.541 16.22C304.541 15.96 304.481 15.7433 304.361 15.57C304.241 15.39 304.045 15.2333 303.771 15.1C303.505 14.96 303.145 14.8167 302.691 14.67C302.051 14.4767 301.585 14.2133 301.291 13.88C300.998 13.5467 300.851 13.1333 300.851 12.64C300.851 12.3067 300.938 12.0067 301.111 11.74C301.285 11.4733 301.535 11.2633 301.861 11.11C302.188 10.9567 302.585 10.88 303.051 10.88C303.491 10.88 303.875 10.9633 304.201 11.13C304.535 11.29 304.791 11.5167 304.971 11.81C305.158 12.1033 305.251 12.44 305.251 12.82H304.371C304.371 12.6333 304.321 12.45 304.221 12.27C304.121 12.09 303.971 11.94 303.771 11.82C303.571 11.7 303.318 11.64 303.011 11.64C302.645 11.64 302.338 11.73 302.091 11.91C301.845 12.0833 301.721 12.3233 301.721 12.63C301.721 12.8633 301.775 13.06 301.881 13.22C301.995 13.38 302.178 13.5267 302.431 13.66C302.685 13.7867 303.028 13.9233 303.461 14.07C303.868 14.2033 304.215 14.36 304.501 14.54C304.795 14.7133 305.018 14.93 305.171 15.19C305.331 15.45 305.411 15.7733 305.411 16.16C305.411 16.54 305.315 16.8767 305.121 17.17C304.928 17.4633 304.658 17.6967 304.311 17.87C303.965 18.0367 303.561 18.12 303.101 18.12ZM309.027 18.12C308.461 18.12 307.974 17.97 307.567 17.67C307.161 17.37 306.847 16.95 306.627 16.41C306.414 15.8633 306.307 15.2267 306.307 14.5C306.307 13.7733 306.414 13.14 306.627 12.6C306.847 12.0533 307.161 11.63 307.567 11.33C307.974 11.03 308.461 10.88 309.027 10.88C309.594 10.88 310.081 11.03 310.487 11.33C310.894 11.63 311.204 12.0533 311.417 12.6C311.637 13.14 311.747 13.7733 311.747 14.5C311.747 15.2267 311.637 15.8633 311.417 16.41C311.204 16.95 310.894 17.37 310.487 17.67C310.081 17.97 309.594 18.12 309.027 18.12ZM309.027 17.33C309.581 17.33 310.027 17.0833 310.367 16.59C310.714 16.0967 310.887 15.4 310.887 14.5C310.887 13.6 310.714 12.9033 310.367 12.41C310.027 11.9167 309.581 11.67 309.027 11.67C308.467 11.67 308.017 11.9167 307.677 12.41C307.337 12.9033 307.167 13.6 307.167 14.5C307.167 15.4 307.337 16.0967 307.677 16.59C308.017 17.0833 308.467 17.33 309.027 17.33ZM315.023 18.12C314.457 18.12 313.97 17.97 313.563 17.67C313.157 17.37 312.843 16.95 312.623 16.41C312.41 15.8633 312.303 15.2267 312.303 14.5C312.303 13.7733 312.41 13.14 312.623 12.6C312.843 12.0533 313.157 11.63 313.563 11.33C313.97 11.03 314.457 10.88 315.023 10.88C315.59 10.88 316.077 11.03 316.483 11.33C316.89 11.63 317.2 12.0533 317.413 12.6C317.633 13.14 317.743 13.7733 317.743 14.5C317.743 15.2267 317.633 15.8633 317.413 16.41C317.2 16.95 316.89 17.37 316.483 17.67C316.077 17.97 315.59 18.12 315.023 18.12ZM315.023 17.33C315.577 17.33 316.023 17.0833 316.363 16.59C316.71 16.0967 316.883 15.4 316.883 14.5C316.883 13.6 316.71 12.9033 316.363 12.41C316.023 11.9167 315.577 11.67 315.023 11.67C314.463 11.67 314.013 11.9167 313.673 12.41C313.333 12.9033 313.163 13.6 313.163 14.5C313.163 15.4 313.333 16.0967 313.673 16.59C314.013 17.0833 314.463 17.33 315.023 17.33ZM318.59 18V11H319.45L322.63 16.53V11H323.46V18H322.59L319.41 12.47V18H318.59ZM355.356 13.45H358.826V16.92H355.356V13.45ZM391.248 18L390.178 11H391.028L391.738 16.4L392.728 11H393.588L394.578 16.4L395.288 11H396.138L395.068 18H394.108L393.158 12.62L392.208 18H391.248ZM396.484 18L398.674 11H399.644L401.824 18H400.904L400.394 16.26H397.914L397.404 18H396.484ZM399.134 12.18L398.124 15.56H400.184L399.174 12.18H399.134ZM403.14 18V17.27H404.73V11.73H403.14V11H407.16V11.73H405.57V17.27H407.16V18H403.14ZM410.726 18V11.76H408.846V11H413.446V11.76H411.566V18H410.726ZM415.013 18V11H415.853V17.24H419.403V18H415.013ZM421.129 18V17.27H422.719V11.73H421.129V11H425.149V11.73H423.559V17.27H425.149V18H421.129ZM429.205 18.12C428.711 18.12 428.281 18.0267 427.915 17.84C427.555 17.6533 427.275 17.3933 427.075 17.06C426.881 16.7267 426.781 16.3367 426.775 15.89H427.655C427.661 16.29 427.795 16.6367 428.055 16.93C428.321 17.2167 428.705 17.36 429.205 17.36C429.665 17.36 430.018 17.25 430.265 17.03C430.518 16.8033 430.645 16.5333 430.645 16.22C430.645 15.96 430.585 15.7433 430.465 15.57C430.345 15.39 430.148 15.2333 429.875 15.1C429.608 14.96 429.248 14.8167 428.795 14.67C428.155 14.4767 427.688 14.2133 427.395 13.88C427.101 13.5467 426.955 13.1333 426.955 12.64C426.955 12.3067 427.041 12.0067 427.215 11.74C427.388 11.4733 427.638 11.2633 427.965 11.11C428.291 10.9567 428.688 10.88 429.155 10.88C429.595 10.88 429.978 10.9633 430.305 11.13C430.638 11.29 430.895 11.5167 431.075 11.81C431.261 12.1033 431.355 12.44 431.355 12.82H430.475C430.475 12.6333 430.425 12.45 430.325 12.27C430.225 12.09 430.075 11.94 429.875 11.82C429.675 11.7 429.421 11.64 429.115 11.64C428.748 11.64 428.441 11.73 428.195 11.91C427.948 12.0833 427.825 12.3233 427.825 12.63C427.825 12.8633 427.878 13.06 427.985 13.22C428.098 13.38 428.281 13.5267 428.535 13.66C428.788 13.7867 429.131 13.9233 429.565 14.07C429.971 14.2033 430.318 14.36 430.605 14.54C430.898 14.7133 431.121 14.93 431.275 15.19C431.435 15.45 431.515 15.7733 431.515 16.16C431.515 16.54 431.418 16.8767 431.225 17.17C431.031 17.4633 430.761 17.6967 430.415 17.87C430.068 18.0367 429.665 18.12 429.205 18.12ZM434.711 18V11.76H432.831V11H437.431V11.76H435.551V18H434.711ZM469.467 13.45H472.937V16.92H469.467V13.45ZM507.32 18.12C506.753 18.12 506.263 17.97 505.85 17.67C505.443 17.37 505.13 16.95 504.91 16.41C504.696 15.87 504.59 15.2333 504.59 14.5C504.59 13.7733 504.696 13.14 504.91 12.6C505.13 12.0533 505.443 11.63 505.85 11.33C506.263 11.03 506.753 10.88 507.32 10.88C508.04 10.88 508.62 11.08 509.06 11.48C509.5 11.8733 509.756 12.4 509.83 13.06H508.9C508.833 12.6667 508.666 12.3367 508.4 12.07C508.133 11.8033 507.773 11.67 507.32 11.67C506.74 11.67 506.283 11.9233 505.95 12.43C505.616 12.93 505.45 13.62 505.45 14.5C505.45 15.3867 505.616 16.08 505.95 16.58C506.283 17.08 506.74 17.33 507.32 17.33C507.793 17.33 508.156 17.2033 508.41 16.95C508.67 16.6967 508.833 16.37 508.9 15.97H509.83C509.723 16.6367 509.456 17.1633 509.03 17.55C508.61 17.93 508.04 18.12 507.32 18.12ZM513.266 18.12C512.699 18.12 512.212 17.97 511.806 17.67C511.399 17.37 511.086 16.95 510.866 16.41C510.652 15.8633 510.546 15.2267 510.546 14.5C510.546 13.7733 510.652 13.14 510.866 12.6C511.086 12.0533 511.399 11.63 511.806 11.33C512.212 11.03 512.699 10.88 513.266 10.88C513.832 10.88 514.319 11.03 514.726 11.33C515.132 11.63 515.442 12.0533 515.656 12.6C515.876 13.14 515.986 13.7733 515.986 14.5C515.986 15.2267 515.876 15.8633 515.656 16.41C515.442 16.95 515.132 17.37 514.726 17.67C514.319 17.97 513.832 18.12 513.266 18.12ZM513.266 17.33C513.819 17.33 514.266 17.0833 514.606 16.59C514.952 16.0967 515.126 15.4 515.126 14.5C515.126 13.6 514.952 12.9033 514.606 12.41C514.266 11.9167 513.819 11.67 513.266 11.67C512.706 11.67 512.256 11.9167 511.916 12.41C511.576 12.9033 511.406 13.6 511.406 14.5C511.406 15.4 511.576 16.0967 511.916 16.59C512.256 17.0833 512.706 17.33 513.266 17.33ZM516.762 18V11H517.662L519.262 14.33L520.862 11H521.762V18H520.942V12.62L519.582 15.45H518.942L517.582 12.63V18H516.762ZM523.248 18V17.27H524.838V11.73H523.248V11H527.268V11.73H525.678V17.27H527.268V18H523.248ZM528.824 18V11H529.684L532.864 16.53V11H533.694V18H532.824L529.644 12.47V18H528.824ZM537.18 18.12C536.687 18.12 536.247 17.9767 535.86 17.69C535.473 17.3967 535.17 16.98 534.95 16.44C534.737 15.9 534.63 15.2533 534.63 14.5C534.63 13.7533 534.74 13.11 534.96 12.57C535.18 12.03 535.49 11.6133 535.89 11.32C536.297 11.0267 536.777 10.88 537.33 10.88C537.99 10.88 538.527 11.0733 538.94 11.46C539.36 11.8467 539.61 12.3667 539.69 13.02H538.76C538.693 12.62 538.537 12.2967 538.29 12.05C538.05 11.7967 537.73 11.67 537.33 11.67C536.757 11.67 536.307 11.92 535.98 12.42C535.653 12.92 535.49 13.6133 535.49 14.5C535.49 15.4 535.653 16.0967 535.98 16.59C536.307 17.0833 536.73 17.33 537.25 17.33C537.623 17.33 537.93 17.22 538.17 17C538.41 16.7733 538.59 16.4867 538.71 16.14C538.837 15.7867 538.907 15.4233 538.92 15.05H537.36V14.33H539.78V18H539.01L538.94 16.94H538.9C538.76 17.3 538.553 17.5867 538.28 17.8C538.013 18.0133 537.647 18.12 537.18 18.12ZM549.312 18.12C548.819 18.12 548.389 18.0267 548.022 17.84C547.662 17.6533 547.382 17.3933 547.182 17.06C546.989 16.7267 546.889 16.3367 546.882 15.89H547.762C547.769 16.29 547.902 16.6367 548.162 16.93C548.429 17.2167 548.812 17.36 549.312 17.36C549.772 17.36 550.126 17.25 550.372 17.03C550.626 16.8033 550.752 16.5333 550.752 16.22C550.752 15.96 550.692 15.7433 550.572 15.57C550.452 15.39 550.256 15.2333 549.982 15.1C549.716 14.96 549.356 14.8167 548.902 14.67C548.262 14.4767 547.796 14.2133 547.502 13.88C547.209 13.5467 547.062 13.1333 547.062 12.64C547.062 12.3067 547.149 12.0067 547.322 11.74C547.496 11.4733 547.746 11.2633 548.072 11.11C548.399 10.9567 548.796 10.88 549.262 10.88C549.702 10.88 550.086 10.9633 550.412 11.13C550.746 11.29 551.002 11.5167 551.182 11.81C551.369 12.1033 551.462 12.44 551.462 12.82H550.582C550.582 12.6333 550.532 12.45 550.432 12.27C550.332 12.09 550.182 11.94 549.982 11.82C549.782 11.7 549.529 11.64 549.222 11.64C548.856 11.64 548.549 11.73 548.302 11.91C548.056 12.0833 547.932 12.3233 547.932 12.63C547.932 12.8633 547.986 13.06 548.092 13.22C548.206 13.38 548.389 13.5267 548.642 13.66C548.896 13.7867 549.239 13.9233 549.672 14.07C550.079 14.2033 550.426 14.36 550.712 14.54C551.006 14.7133 551.229 14.93 551.382 15.19C551.542 15.45 551.622 15.7733 551.622 16.16C551.622 16.54 551.526 16.8767 551.332 17.17C551.139 17.4633 550.869 17.6967 550.522 17.87C550.176 18.0367 549.772 18.12 549.312 18.12ZM555.238 18.12C554.672 18.12 554.185 17.97 553.778 17.67C553.372 17.37 553.058 16.95 552.838 16.41C552.625 15.8633 552.518 15.2267 552.518 14.5C552.518 13.7733 552.625 13.14 552.838 12.6C553.058 12.0533 553.372 11.63 553.778 11.33C554.185 11.03 554.672 10.88 555.238 10.88C555.805 10.88 556.292 11.03 556.698 11.33C557.105 11.63 557.415 12.0533 557.628 12.6C557.848 13.14 557.958 13.7733 557.958 14.5C557.958 15.2267 557.848 15.8633 557.628 16.41C557.415 16.95 557.105 17.37 556.698 17.67C556.292 17.97 555.805 18.12 555.238 18.12ZM555.238 17.33C555.792 17.33 556.238 17.0833 556.578 16.59C556.925 16.0967 557.098 15.4 557.098 14.5C557.098 13.6 556.925 12.9033 556.578 12.41C556.238 11.9167 555.792 11.67 555.238 11.67C554.678 11.67 554.228 11.9167 553.888 12.41C553.548 12.9033 553.378 13.6 553.378 14.5C553.378 15.4 553.548 16.0967 553.888 16.59C554.228 17.0833 554.678 17.33 555.238 17.33ZM561.234 18.12C560.668 18.12 560.181 17.97 559.774 17.67C559.368 17.37 559.054 16.95 558.834 16.41C558.621 15.8633 558.514 15.2267 558.514 14.5C558.514 13.7733 558.621 13.14 558.834 12.6C559.054 12.0533 559.368 11.63 559.774 11.33C560.181 11.03 560.668 10.88 561.234 10.88C561.801 10.88 562.288 11.03 562.694 11.33C563.101 11.63 563.411 12.0533 563.624 12.6C563.844 13.14 563.954 13.7733 563.954 14.5C563.954 15.2267 563.844 15.8633 563.624 16.41C563.411 16.95 563.101 17.37 562.694 17.67C562.288 17.97 561.801 18.12 561.234 18.12ZM561.234 17.33C561.788 17.33 562.234 17.0833 562.574 16.59C562.921 16.0967 563.094 15.4 563.094 14.5C563.094 13.6 562.921 12.9033 562.574 12.41C562.234 11.9167 561.788 11.67 561.234 11.67C560.674 11.67 560.224 11.9167 559.884 12.41C559.544 12.9033 559.374 13.6 559.374 14.5C559.374 15.4 559.544 16.0967 559.884 16.59C560.224 17.0833 560.674 17.33 561.234 17.33ZM564.8 18V11H565.66L568.84 16.53V11H569.67V18H568.8L565.62 12.47V18H564.8ZM601.567 13.45H605.037V16.92H601.567V13.45ZM637.459 18L636.389 11H637.239L637.949 16.4L638.939 11H639.799L640.789 16.4L641.499 11H642.349L641.279 18H640.319L639.369 12.62L638.419 18H637.459ZM642.695 18L644.885 11H645.855L648.035 18H647.115L646.605 16.26H644.125L643.615 18H642.695ZM645.345 12.18L644.335 15.56H646.395L645.385 12.18H645.345ZM649.351 18V17.27H650.941V11.73H649.351V11H653.371V11.73H651.781V17.27H653.371V18H649.351ZM656.937 18V11.76H655.057V11H659.657V11.76H657.777V18H656.937ZM661.224 18V11H662.064V17.24H665.614V18H661.224ZM667.34 18V17.27H668.93V11.73H667.34V11H671.36V11.73H669.77V17.27H671.36V18H667.34ZM675.416 18.12C674.922 18.12 674.492 18.0267 674.126 17.84C673.766 17.6533 673.486 17.3933 673.286 17.06C673.092 16.7267 672.992 16.3367 672.986 15.89H673.866C673.872 16.29 674.006 16.6367 674.266 16.93C674.532 17.2167 674.916 17.36 675.416 17.36C675.876 17.36 676.229 17.25 676.476 17.03C676.729 16.8033 676.856 16.5333 676.856 16.22C676.856 15.96 676.796 15.7433 676.676 15.57C676.556 15.39 676.359 15.2333 676.086 15.1C675.819 14.96 675.459 14.8167 675.006 14.67C674.366 14.4767 673.899 14.2133 673.606 13.88C673.312 13.5467 673.166 13.1333 673.166 12.64C673.166 12.3067 673.252 12.0067 673.426 11.74C673.599 11.4733 673.849 11.2633 674.176 11.11C674.502 10.9567 674.899 10.88 675.366 10.88C675.806 10.88 676.189 10.9633 676.516 11.13C676.849 11.29 677.106 11.5167 677.286 11.81C677.472 12.1033 677.566 12.44 677.566 12.82H676.686C676.686 12.6333 676.636 12.45 676.536 12.27C676.436 12.09 676.286 11.94 676.086 11.82C675.886 11.7 675.632 11.64 675.326 11.64C674.959 11.64 674.652 11.73 674.406 11.91C674.159 12.0833 674.036 12.3233 674.036 12.63C674.036 12.8633 674.089 13.06 674.196 13.22C674.309 13.38 674.492 13.5267 674.746 13.66C674.999 13.7867 675.342 13.9233 675.776 14.07C676.182 14.2033 676.529 14.36 676.816 14.54C677.109 14.7133 677.332 14.93 677.486 15.19C677.646 15.45 677.726 15.7733 677.726 16.16C677.726 16.54 677.629 16.8767 677.436 17.17C677.242 17.4633 676.972 17.6967 676.626 17.87C676.279 18.0367 675.876 18.12 675.416 18.12ZM680.922 18V11.76H679.042V11H683.642V11.76H681.762V18H680.922ZM715.678 13.45H719.148V16.92H715.678V13.45ZM753.53 18.12C752.964 18.12 752.474 17.97 752.06 17.67C751.654 17.37 751.34 16.95 751.12 16.41C750.907 15.87 750.8 15.2333 750.8 14.5C750.8 13.7733 750.907 13.14 751.12 12.6C751.34 12.0533 751.654 11.63 752.06 11.33C752.474 11.03 752.964 10.88 753.53 10.88C754.25 10.88 754.83 11.08 755.27 11.48C755.71 11.8733 755.967 12.4 756.04 13.06H755.11C755.044 12.6667 754.877 12.3367 754.61 12.07C754.344 11.8033 753.984 11.67 753.53 11.67C752.95 11.67 752.494 11.9233 752.16 12.43C751.827 12.93 751.66 13.62 751.66 14.5C751.66 15.3867 751.827 16.08 752.16 16.58C752.494 17.08 752.95 17.33 753.53 17.33C754.004 17.33 754.367 17.2033 754.62 16.95C754.88 16.6967 755.044 16.37 755.11 15.97H756.04C755.934 16.6367 755.667 17.1633 755.24 17.55C754.82 17.93 754.25 18.12 753.53 18.12ZM759.477 18.12C758.91 18.12 758.423 17.97 758.017 17.67C757.61 17.37 757.297 16.95 757.077 16.41C756.863 15.8633 756.757 15.2267 756.757 14.5C756.757 13.7733 756.863 13.14 757.077 12.6C757.297 12.0533 757.61 11.63 758.017 11.33C758.423 11.03 758.91 10.88 759.477 10.88C760.043 10.88 760.53 11.03 760.937 11.33C761.343 11.63 761.653 12.0533 761.867 12.6C762.087 13.14 762.197 13.7733 762.197 14.5C762.197 15.2267 762.087 15.8633 761.867 16.41C761.653 16.95 761.343 17.37 760.937 17.67C760.53 17.97 760.043 18.12 759.477 18.12ZM759.477 17.33C760.03 17.33 760.477 17.0833 760.817 16.59C761.163 16.0967 761.337 15.4 761.337 14.5C761.337 13.6 761.163 12.9033 760.817 12.41C760.477 11.9167 760.03 11.67 759.477 11.67C758.917 11.67 758.467 11.9167 758.127 12.41C757.787 12.9033 757.617 13.6 757.617 14.5C757.617 15.4 757.787 16.0967 758.127 16.59C758.467 17.0833 758.917 17.33 759.477 17.33ZM762.973 18V11H763.873L765.473 14.33L767.073 11H767.973V18H767.153V12.62L765.793 15.45H765.153L763.793 12.63V18H762.973ZM769.459 18V17.27H771.049V11.73H769.459V11H773.479V11.73H771.889V17.27H773.479V18H769.459ZM775.035 18V11H775.895L779.075 16.53V11H779.905V18H779.035L775.855 12.47V18H775.035ZM783.391 18.12C782.898 18.12 782.458 17.9767 782.071 17.69C781.684 17.3967 781.381 16.98 781.161 16.44C780.948 15.9 780.841 15.2533 780.841 14.5C780.841 13.7533 780.951 13.11 781.171 12.57C781.391 12.03 781.701 11.6133 782.101 11.32C782.508 11.0267 782.988 10.88 783.541 10.88C784.201 10.88 784.738 11.0733 785.151 11.46C785.571 11.8467 785.821 12.3667 785.901 13.02H784.971C784.904 12.62 784.748 12.2967 784.501 12.05C784.261 11.7967 783.941 11.67 783.541 11.67C782.968 11.67 782.518 11.92 782.191 12.42C781.864 12.92 781.701 13.6133 781.701 14.5C781.701 15.4 781.864 16.0967 782.191 16.59C782.518 17.0833 782.941 17.33 783.461 17.33C783.834 17.33 784.141 17.22 784.381 17C784.621 16.7733 784.801 16.4867 784.921 16.14C785.048 15.7867 785.118 15.4233 785.131 15.05H783.571V14.33H785.991V18H785.221L785.151 16.94H785.111C784.971 17.3 784.764 17.5867 784.491 17.8C784.224 18.0133 783.858 18.12 783.391 18.12ZM795.523 18.12C795.03 18.12 794.6 18.0267 794.233 17.84C793.873 17.6533 793.593 17.3933 793.393 17.06C793.2 16.7267 793.1 16.3367 793.093 15.89H793.973C793.98 16.29 794.113 16.6367 794.373 16.93C794.64 17.2167 795.023 17.36 795.523 17.36C795.983 17.36 796.336 17.25 796.583 17.03C796.836 16.8033 796.963 16.5333 796.963 16.22C796.963 15.96 796.903 15.7433 796.783 15.57C796.663 15.39 796.466 15.2333 796.193 15.1C795.926 14.96 795.566 14.8167 795.113 14.67C794.473 14.4767 794.006 14.2133 793.713 13.88C793.42 13.5467 793.273 13.1333 793.273 12.64C793.273 12.3067 793.36 12.0067 793.533 11.74C793.706 11.4733 793.956 11.2633 794.283 11.11C794.61 10.9567 795.006 10.88 795.473 10.88C795.913 10.88 796.296 10.9633 796.623 11.13C796.956 11.29 797.213 11.5167 797.393 11.81C797.58 12.1033 797.673 12.44 797.673 12.82H796.793C796.793 12.6333 796.743 12.45 796.643 12.27C796.543 12.09 796.393 11.94 796.193 11.82C795.993 11.7 795.74 11.64 795.433 11.64C795.066 11.64 794.76 11.73 794.513 11.91C794.266 12.0833 794.143 12.3233 794.143 12.63C794.143 12.8633 794.196 13.06 794.303 13.22C794.416 13.38 794.6 13.5267 794.853 13.66C795.106 13.7867 795.45 13.9233 795.883 14.07C796.29 14.2033 796.636 14.36 796.923 14.54C797.216 14.7133 797.44 14.93 797.593 15.19C797.753 15.45 797.833 15.7733 797.833 16.16C797.833 16.54 797.736 16.8767 797.543 17.17C797.35 17.4633 797.08 17.6967 796.733 17.87C796.386 18.0367 795.983 18.12 795.523 18.12ZM801.449 18.12C800.883 18.12 800.396 17.97 799.989 17.67C799.583 17.37 799.269 16.95 799.049 16.41C798.836 15.8633 798.729 15.2267 798.729 14.5C798.729 13.7733 798.836 13.14 799.049 12.6C799.269 12.0533 799.583 11.63 799.989 11.33C800.396 11.03 800.883 10.88 801.449 10.88C802.016 10.88 802.503 11.03 802.909 11.33C803.316 11.63 803.626 12.0533 803.839 12.6C804.059 13.14 804.169 13.7733 804.169 14.5C804.169 15.2267 804.059 15.8633 803.839 16.41C803.626 16.95 803.316 17.37 802.909 17.67C802.503 17.97 802.016 18.12 801.449 18.12ZM801.449 17.33C802.003 17.33 802.449 17.0833 802.789 16.59C803.136 16.0967 803.309 15.4 803.309 14.5C803.309 13.6 803.136 12.9033 802.789 12.41C802.449 11.9167 802.003 11.67 801.449 11.67C800.889 11.67 800.439 11.9167 800.099 12.41C799.759 12.9033 799.589 13.6 799.589 14.5C799.589 15.4 799.759 16.0967 800.099 16.59C800.439 17.0833 800.889 17.33 801.449 17.33ZM807.445 18.12C806.879 18.12 806.392 17.97 805.985 17.67C805.579 17.37 805.265 16.95 805.045 16.41C804.832 15.8633 804.725 15.2267 804.725 14.5C804.725 13.7733 804.832 13.14 805.045 12.6C805.265 12.0533 805.579 11.63 805.985 11.33C806.392 11.03 806.879 10.88 807.445 10.88C808.012 10.88 808.499 11.03 808.905 11.33C809.312 11.63 809.622 12.0533 809.835 12.6C810.055 13.14 810.165 13.7733 810.165 14.5C810.165 15.2267 810.055 15.8633 809.835 16.41C809.622 16.95 809.312 17.37 808.905 17.67C808.499 17.97 808.012 18.12 807.445 18.12ZM807.445 17.33C807.999 17.33 808.445 17.0833 808.785 16.59C809.132 16.0967 809.305 15.4 809.305 14.5C809.305 13.6 809.132 12.9033 808.785 12.41C808.445 11.9167 807.999 11.67 807.445 11.67C806.885 11.67 806.435 11.9167 806.095 12.41C805.755 12.9033 805.585 13.6 805.585 14.5C805.585 15.4 805.755 16.0967 806.095 16.59C806.435 17.0833 806.885 17.33 807.445 17.33ZM811.011 18V11H811.871L815.051 16.53V11H815.881V18H815.011L811.831 12.47V18H811.011ZM847.778 13.45H851.248V16.92H847.778V13.45ZM883.67 18L882.6 11H883.45L884.16 16.4L885.15 11H886.01L887 16.4L887.71 11H888.56L887.49 18H886.53L885.58 12.62L884.63 18H883.67ZM888.906 18L891.096 11H892.066L894.246 18H893.326L892.816 16.26H890.336L889.826 18H888.906ZM891.556 12.18L890.546 15.56H892.606L891.596 12.18H891.556ZM895.562 18V17.27H897.152V11.73H895.562V11H899.582V11.73H897.992V17.27H899.582V18H895.562ZM903.148 18V11.76H901.268V11H905.868V11.76H903.988V18H903.148ZM907.434 18V11H908.274V17.24H911.824V18H907.434ZM913.551 18V17.27H915.141V11.73H913.551V11H917.571V11.73H915.981V17.27H917.571V18H913.551ZM921.627 18.12C921.133 18.12 920.703 18.0267 920.337 17.84C919.977 17.6533 919.697 17.3933 919.497 17.06C919.303 16.7267 919.203 16.3367 919.197 15.89H920.077C920.083 16.29 920.217 16.6367 920.477 16.93C920.743 17.2167 921.127 17.36 921.627 17.36C922.087 17.36 922.44 17.25 922.687 17.03C922.94 16.8033 923.067 16.5333 923.067 16.22C923.067 15.96 923.007 15.7433 922.887 15.57C922.767 15.39 922.57 15.2333 922.297 15.1C922.03 14.96 921.67 14.8167 921.217 14.67C920.577 14.4767 920.11 14.2133 919.817 13.88C919.523 13.5467 919.377 13.1333 919.377 12.64C919.377 12.3067 919.463 12.0067 919.637 11.74C919.81 11.4733 920.06 11.2633 920.387 11.11C920.713 10.9567 921.11 10.88 921.577 10.88C922.017 10.88 922.4 10.9633 922.727 11.13C923.06 11.29 923.317 11.5167 923.497 11.81C923.683 12.1033 923.777 12.44 923.777 12.82H922.897C922.897 12.6333 922.847 12.45 922.747 12.27C922.647 12.09 922.497 11.94 922.297 11.82C922.097 11.7 921.843 11.64 921.537 11.64C921.17 11.64 920.863 11.73 920.617 11.91C920.37 12.0833 920.247 12.3233 920.247 12.63C920.247 12.8633 920.3 13.06 920.407 13.22C920.52 13.38 920.703 13.5267 920.957 13.66C921.21 13.7867 921.553 13.9233 921.987 14.07C922.393 14.2033 922.74 14.36 923.027 14.54C923.32 14.7133 923.543 14.93 923.697 15.19C923.857 15.45 923.937 15.7733 923.937 16.16C923.937 16.54 923.84 16.8767 923.647 17.17C923.453 17.4633 923.183 17.6967 922.837 17.87C922.49 18.0367 922.087 18.12 921.627 18.12ZM927.133 18V11.76H925.253V11H929.853V11.76H927.973V18H927.133ZM961.889 13.45H965.359V16.92H961.889V13.45ZM999.741 18.12C999.175 18.12 998.685 17.97 998.271 17.67C997.865 17.37 997.551 16.95 997.331 16.41C997.118 15.87 997.011 15.2333 997.011 14.5C997.011 13.7733 997.118 13.14 997.331 12.6C997.551 12.0533 997.865 11.63 998.271 11.33C998.685 11.03 999.175 10.88 999.741 10.88C1000.46 10.88 1001.04 11.08 1001.48 11.48C1001.92 11.8733 1002.18 12.4 1002.25 13.06H1001.32C1001.25 12.6667 1001.09 12.3367 1000.82 12.07C1000.55 11.8033 1000.19 11.67 999.741 11.67C999.161 11.67 998.705 11.9233 998.371 12.43C998.038 12.93 997.871 13.62 997.871 14.5C997.871 15.3867 998.038 16.08 998.371 16.58C998.705 17.08 999.161 17.33 999.741 17.33C1000.21 17.33 1000.58 17.2033 1000.83 16.95C1001.09 16.6967 1001.25 16.37 1001.32 15.97H1002.25C1002.14 16.6367 1001.88 17.1633 1001.45 17.55C1001.03 17.93 1000.46 18.12 999.741 18.12ZM1005.69 18.12C1005.12 18.12 1004.63 17.97 1004.23 17.67C1003.82 17.37 1003.51 16.95 1003.29 16.41C1003.07 15.8633 1002.97 15.2267 1002.97 14.5C1002.97 13.7733 1003.07 13.14 1003.29 12.6C1003.51 12.0533 1003.82 11.63 1004.23 11.33C1004.63 11.03 1005.12 10.88 1005.69 10.88C1006.25 10.88 1006.74 11.03 1007.15 11.33C1007.55 11.63 1007.86 12.0533 1008.08 12.6C1008.3 13.14 1008.41 13.7733 1008.41 14.5C1008.41 15.2267 1008.3 15.8633 1008.08 16.41C1007.86 16.95 1007.55 17.37 1007.15 17.67C1006.74 17.97 1006.25 18.12 1005.69 18.12ZM1005.69 17.33C1006.24 17.33 1006.69 17.0833 1007.03 16.59C1007.37 16.0967 1007.55 15.4 1007.55 14.5C1007.55 13.6 1007.37 12.9033 1007.03 12.41C1006.69 11.9167 1006.24 11.67 1005.69 11.67C1005.13 11.67 1004.68 11.9167 1004.34 12.41C1004 12.9033 1003.83 13.6 1003.83 14.5C1003.83 15.4 1004 16.0967 1004.34 16.59C1004.68 17.0833 1005.13 17.33 1005.69 17.33ZM1009.18 18V11H1010.08L1011.68 14.33L1013.28 11H1014.18V18H1013.36V12.62L1012 15.45H1011.36L1010 12.63V18H1009.18ZM1015.67 18V17.27H1017.26V11.73H1015.67V11H1019.69V11.73H1018.1V17.27H1019.69V18H1015.67ZM1021.25 18V11H1022.11L1025.29 16.53V11H1026.12V18H1025.25L1022.07 12.47V18H1021.25ZM1029.6 18.12C1029.11 18.12 1028.67 17.9767 1028.28 17.69C1027.9 17.3967 1027.59 16.98 1027.37 16.44C1027.16 15.9 1027.05 15.2533 1027.05 14.5C1027.05 13.7533 1027.16 13.11 1027.38 12.57C1027.6 12.03 1027.91 11.6133 1028.31 11.32C1028.72 11.0267 1029.2 10.88 1029.75 10.88C1030.41 10.88 1030.95 11.0733 1031.36 11.46C1031.78 11.8467 1032.03 12.3667 1032.11 13.02H1031.18C1031.12 12.62 1030.96 12.2967 1030.71 12.05C1030.47 11.7967 1030.15 11.67 1029.75 11.67C1029.18 11.67 1028.73 11.92 1028.4 12.42C1028.08 12.92 1027.91 13.6133 1027.91 14.5C1027.91 15.4 1028.08 16.0967 1028.4 16.59C1028.73 17.0833 1029.15 17.33 1029.67 17.33C1030.05 17.33 1030.35 17.22 1030.59 17C1030.83 16.7733 1031.01 16.4867 1031.13 16.14C1031.26 15.7867 1031.33 15.4233 1031.34 15.05H1029.78V14.33H1032.2V18H1031.43L1031.36 16.94H1031.32C1031.18 17.3 1030.98 17.5867 1030.7 17.8C1030.44 18.0133 1030.07 18.12 1029.6 18.12ZM1041.73 18.12C1041.24 18.12 1040.81 18.0267 1040.44 17.84C1040.08 17.6533 1039.8 17.3933 1039.6 17.06C1039.41 16.7267 1039.31 16.3367 1039.3 15.89H1040.18C1040.19 16.29 1040.32 16.6367 1040.58 16.93C1040.85 17.2167 1041.23 17.36 1041.73 17.36C1042.19 17.36 1042.55 17.25 1042.79 17.03C1043.05 16.8033 1043.17 16.5333 1043.17 16.22C1043.17 15.96 1043.11 15.7433 1042.99 15.57C1042.87 15.39 1042.68 15.2333 1042.4 15.1C1042.14 14.96 1041.78 14.8167 1041.32 14.67C1040.68 14.4767 1040.22 14.2133 1039.92 13.88C1039.63 13.5467 1039.48 13.1333 1039.48 12.64C1039.48 12.3067 1039.57 12.0067 1039.74 11.74C1039.92 11.4733 1040.17 11.2633 1040.49 11.11C1040.82 10.9567 1041.22 10.88 1041.68 10.88C1042.12 10.88 1042.51 10.9633 1042.83 11.13C1043.17 11.29 1043.42 11.5167 1043.6 11.81C1043.79 12.1033 1043.88 12.44 1043.88 12.82H1043C1043 12.6333 1042.95 12.45 1042.85 12.27C1042.75 12.09 1042.6 11.94 1042.4 11.82C1042.2 11.7 1041.95 11.64 1041.64 11.64C1041.28 11.64 1040.97 11.73 1040.72 11.91C1040.48 12.0833 1040.35 12.3233 1040.35 12.63C1040.35 12.8633 1040.41 13.06 1040.51 13.22C1040.63 13.38 1040.81 13.5267 1041.06 13.66C1041.32 13.7867 1041.66 13.9233 1042.09 14.07C1042.5 14.2033 1042.85 14.36 1043.13 14.54C1043.43 14.7133 1043.65 14.93 1043.8 15.19C1043.96 15.45 1044.04 15.7733 1044.04 16.16C1044.04 16.54 1043.95 16.8767 1043.75 17.17C1043.56 17.4633 1043.29 17.6967 1042.94 17.87C1042.6 18.0367 1042.19 18.12 1041.73 18.12ZM1047.66 18.12C1047.09 18.12 1046.61 17.97 1046.2 17.67C1045.79 17.37 1045.48 16.95 1045.26 16.41C1045.05 15.8633 1044.94 15.2267 1044.94 14.5C1044.94 13.7733 1045.05 13.14 1045.26 12.6C1045.48 12.0533 1045.79 11.63 1046.2 11.33C1046.61 11.03 1047.09 10.88 1047.66 10.88C1048.23 10.88 1048.71 11.03 1049.12 11.33C1049.53 11.63 1049.84 12.0533 1050.05 12.6C1050.27 13.14 1050.38 13.7733 1050.38 14.5C1050.38 15.2267 1050.27 15.8633 1050.05 16.41C1049.84 16.95 1049.53 17.37 1049.12 17.67C1048.71 17.97 1048.23 18.12 1047.66 18.12ZM1047.66 17.33C1048.21 17.33 1048.66 17.0833 1049 16.59C1049.35 16.0967 1049.52 15.4 1049.52 14.5C1049.52 13.6 1049.35 12.9033 1049 12.41C1048.66 11.9167 1048.21 11.67 1047.66 11.67C1047.1 11.67 1046.65 11.9167 1046.31 12.41C1045.97 12.9033 1045.8 13.6 1045.8 14.5C1045.8 15.4 1045.97 16.0967 1046.31 16.59C1046.65 17.0833 1047.1 17.33 1047.66 17.33ZM1053.66 18.12C1053.09 18.12 1052.6 17.97 1052.2 17.67C1051.79 17.37 1051.48 16.95 1051.26 16.41C1051.04 15.8633 1050.94 15.2267 1050.94 14.5C1050.94 13.7733 1051.04 13.14 1051.26 12.6C1051.48 12.0533 1051.79 11.63 1052.2 11.33C1052.6 11.03 1053.09 10.88 1053.66 10.88C1054.22 10.88 1054.71 11.03 1055.12 11.33C1055.52 11.63 1055.83 12.0533 1056.05 12.6C1056.27 13.14 1056.38 13.7733 1056.38 14.5C1056.38 15.2267 1056.27 15.8633 1056.05 16.41C1055.83 16.95 1055.52 17.37 1055.12 17.67C1054.71 17.97 1054.22 18.12 1053.66 18.12ZM1053.66 17.33C1054.21 17.33 1054.66 17.0833 1055 16.59C1055.34 16.0967 1055.52 15.4 1055.52 14.5C1055.52 13.6 1055.34 12.9033 1055 12.41C1054.66 11.9167 1054.21 11.67 1053.66 11.67C1053.1 11.67 1052.65 11.9167 1052.31 12.41C1051.97 12.9033 1051.8 13.6 1051.8 14.5C1051.8 15.4 1051.97 16.0967 1052.31 16.59C1052.65 17.0833 1053.1 17.33 1053.66 17.33ZM1057.22 18V11H1058.08L1061.26 16.53V11H1062.09V18H1061.22L1058.04 12.47V18H1057.22ZM1093.99 13.45H1097.46V16.92H1093.99V13.45ZM1129.88 18L1128.81 11H1129.66L1130.37 16.4L1131.36 11H1132.22L1133.21 16.4L1133.92 11H1134.77L1133.7 18H1132.74L1131.79 12.62L1130.84 18H1129.88ZM1135.12 18L1137.31 11H1138.28L1140.46 18H1139.54L1139.03 16.26H1136.55L1136.04 18H1135.12ZM1137.77 12.18L1136.76 15.56H1138.82L1137.81 12.18H1137.77ZM1141.77 18V17.27H1143.36V11.73H1141.77V11H1145.79V11.73H1144.2V17.27H1145.79V18H1141.77ZM1149.36 18V11.76H1147.48V11H1152.08V11.76H1150.2V18H1149.36ZM1153.65 18V11H1154.49V17.24H1158.04V18H1153.65ZM1159.76 18V17.27H1161.35V11.73H1159.76V11H1163.78V11.73H1162.19V17.27H1163.78V18H1159.76ZM1167.84 18.12C1167.34 18.12 1166.91 18.0267 1166.55 17.84C1166.19 17.6533 1165.91 17.3933 1165.71 17.06C1165.51 16.7267 1165.41 16.3367 1165.41 15.89H1166.29C1166.29 16.29 1166.43 16.6367 1166.69 16.93C1166.95 17.2167 1167.34 17.36 1167.84 17.36C1168.3 17.36 1168.65 17.25 1168.9 17.03C1169.15 16.8033 1169.28 16.5333 1169.28 16.22C1169.28 15.96 1169.22 15.7433 1169.1 15.57C1168.98 15.39 1168.78 15.2333 1168.51 15.1C1168.24 14.96 1167.88 14.8167 1167.43 14.67C1166.79 14.4767 1166.32 14.2133 1166.03 13.88C1165.73 13.5467 1165.59 13.1333 1165.59 12.64C1165.59 12.3067 1165.67 12.0067 1165.85 11.74C1166.02 11.4733 1166.27 11.2633 1166.6 11.11C1166.92 10.9567 1167.32 10.88 1167.79 10.88C1168.23 10.88 1168.61 10.9633 1168.94 11.13C1169.27 11.29 1169.53 11.5167 1169.71 11.81C1169.89 12.1033 1169.99 12.44 1169.99 12.82H1169.11C1169.11 12.6333 1169.06 12.45 1168.96 12.27C1168.86 12.09 1168.71 11.94 1168.51 11.82C1168.31 11.7 1168.05 11.64 1167.75 11.64C1167.38 11.64 1167.07 11.73 1166.83 11.91C1166.58 12.0833 1166.46 12.3233 1166.46 12.63C1166.46 12.8633 1166.51 13.06 1166.62 13.22C1166.73 13.38 1166.91 13.5267 1167.17 13.66C1167.42 13.7867 1167.76 13.9233 1168.2 14.07C1168.6 14.2033 1168.95 14.36 1169.24 14.54C1169.53 14.7133 1169.75 14.93 1169.91 15.19C1170.07 15.45 1170.15 15.7733 1170.15 16.16C1170.15 16.54 1170.05 16.8767 1169.86 17.17C1169.66 17.4633 1169.39 17.6967 1169.05 17.87C1168.7 18.0367 1168.3 18.12 1167.84 18.12ZM1173.34 18V11.76H1171.46V11H1176.06V11.76H1174.18V18H1173.34ZM1208.1 13.45H1211.57V16.92H1208.1V13.45ZM1245.95 18.12C1245.39 18.12 1244.9 17.97 1244.48 17.67C1244.08 17.37 1243.76 16.95 1243.54 16.41C1243.33 15.87 1243.22 15.2333 1243.22 14.5C1243.22 13.7733 1243.33 13.14 1243.54 12.6C1243.76 12.0533 1244.08 11.63 1244.48 11.33C1244.9 11.03 1245.39 10.88 1245.95 10.88C1246.67 10.88 1247.25 11.08 1247.69 11.48C1248.13 11.8733 1248.39 12.4 1248.46 13.06H1247.53C1247.47 12.6667 1247.3 12.3367 1247.03 12.07C1246.77 11.8033 1246.41 11.67 1245.95 11.67C1245.37 11.67 1244.92 11.9233 1244.58 12.43C1244.25 12.93 1244.08 13.62 1244.08 14.5C1244.08 15.3867 1244.25 16.08 1244.58 16.58C1244.92 17.08 1245.37 17.33 1245.95 17.33C1246.43 17.33 1246.79 17.2033 1247.04 16.95C1247.3 16.6967 1247.47 16.37 1247.53 15.97H1248.46C1248.36 16.6367 1248.09 17.1633 1247.66 17.55C1247.24 17.93 1246.67 18.12 1245.95 18.12ZM1251.9 18.12C1251.33 18.12 1250.85 17.97 1250.44 17.67C1250.03 17.37 1249.72 16.95 1249.5 16.41C1249.29 15.8633 1249.18 15.2267 1249.18 14.5C1249.18 13.7733 1249.29 13.14 1249.5 12.6C1249.72 12.0533 1250.03 11.63 1250.44 11.33C1250.85 11.03 1251.33 10.88 1251.9 10.88C1252.47 10.88 1252.95 11.03 1253.36 11.33C1253.77 11.63 1254.08 12.0533 1254.29 12.6C1254.51 13.14 1254.62 13.7733 1254.62 14.5C1254.62 15.2267 1254.51 15.8633 1254.29 16.41C1254.08 16.95 1253.77 17.37 1253.36 17.67C1252.95 17.97 1252.47 18.12 1251.9 18.12ZM1251.9 17.33C1252.45 17.33 1252.9 17.0833 1253.24 16.59C1253.59 16.0967 1253.76 15.4 1253.76 14.5C1253.76 13.6 1253.59 12.9033 1253.24 12.41C1252.9 11.9167 1252.45 11.67 1251.9 11.67C1251.34 11.67 1250.89 11.9167 1250.55 12.41C1250.21 12.9033 1250.04 13.6 1250.04 14.5C1250.04 15.4 1250.21 16.0967 1250.55 16.59C1250.89 17.0833 1251.34 17.33 1251.9 17.33ZM1255.39 18V11H1256.29L1257.89 14.33L1259.49 11H1260.39V18H1259.57V12.62L1258.21 15.45H1257.57L1256.21 12.63V18H1255.39ZM1261.88 18V17.27H1263.47V11.73H1261.88V11H1265.9V11.73H1264.31V17.27H1265.9V18H1261.88ZM1267.46 18V11H1268.32L1271.5 16.53V11H1272.33V18H1271.46L1268.28 12.47V18H1267.46ZM1275.81 18.12C1275.32 18.12 1274.88 17.9767 1274.49 17.69C1274.11 17.3967 1273.8 16.98 1273.58 16.44C1273.37 15.9 1273.26 15.2533 1273.26 14.5C1273.26 13.7533 1273.37 13.11 1273.59 12.57C1273.81 12.03 1274.12 11.6133 1274.52 11.32C1274.93 11.0267 1275.41 10.88 1275.96 10.88C1276.62 10.88 1277.16 11.0733 1277.57 11.46C1277.99 11.8467 1278.24 12.3667 1278.32 13.02H1277.39C1277.33 12.62 1277.17 12.2967 1276.92 12.05C1276.68 11.7967 1276.36 11.67 1275.96 11.67C1275.39 11.67 1274.94 11.92 1274.61 12.42C1274.29 12.92 1274.12 13.6133 1274.12 14.5C1274.12 15.4 1274.29 16.0967 1274.61 16.59C1274.94 17.0833 1275.36 17.33 1275.88 17.33C1276.26 17.33 1276.56 17.22 1276.8 17C1277.04 16.7733 1277.22 16.4867 1277.34 16.14C1277.47 15.7867 1277.54 15.4233 1277.55 15.05H1275.99V14.33H1278.41V18H1277.64L1277.57 16.94H1277.53C1277.39 17.3 1277.19 17.5867 1276.91 17.8C1276.65 18.0133 1276.28 18.12 1275.81 18.12ZM1287.95 18.12C1287.45 18.12 1287.02 18.0267 1286.66 17.84C1286.3 17.6533 1286.02 17.3933 1285.82 17.06C1285.62 16.7267 1285.52 16.3367 1285.52 15.89H1286.4C1286.4 16.29 1286.54 16.6367 1286.8 16.93C1287.06 17.2167 1287.45 17.36 1287.95 17.36C1288.41 17.36 1288.76 17.25 1289.01 17.03C1289.26 16.8033 1289.39 16.5333 1289.39 16.22C1289.39 15.96 1289.33 15.7433 1289.21 15.57C1289.09 15.39 1288.89 15.2333 1288.62 15.1C1288.35 14.96 1287.99 14.8167 1287.54 14.67C1286.9 14.4767 1286.43 14.2133 1286.14 13.88C1285.84 13.5467 1285.7 13.1333 1285.7 12.64C1285.7 12.3067 1285.78 12.0067 1285.96 11.74C1286.13 11.4733 1286.38 11.2633 1286.71 11.11C1287.03 10.9567 1287.43 10.88 1287.9 10.88C1288.34 10.88 1288.72 10.9633 1289.05 11.13C1289.38 11.29 1289.64 11.5167 1289.82 11.81C1290 12.1033 1290.1 12.44 1290.1 12.82H1289.22C1289.22 12.6333 1289.17 12.45 1289.07 12.27C1288.97 12.09 1288.82 11.94 1288.62 11.82C1288.42 11.7 1288.16 11.64 1287.86 11.64C1287.49 11.64 1287.18 11.73 1286.94 11.91C1286.69 12.0833 1286.57 12.3233 1286.57 12.63C1286.57 12.8633 1286.62 13.06 1286.73 13.22C1286.84 13.38 1287.02 13.5267 1287.28 13.66C1287.53 13.7867 1287.87 13.9233 1288.31 14.07C1288.71 14.2033 1289.06 14.36 1289.35 14.54C1289.64 14.7133 1289.86 14.93 1290.01 15.19C1290.18 15.45 1290.26 15.7733 1290.26 16.16C1290.26 16.54 1290.16 16.8767 1289.97 17.17C1289.77 17.4633 1289.5 17.6967 1289.16 17.87C1288.81 18.0367 1288.41 18.12 1287.95 18.12ZM1293.87 18.12C1293.3 18.12 1292.82 17.97 1292.41 17.67C1292 17.37 1291.69 16.95 1291.47 16.41C1291.26 15.8633 1291.15 15.2267 1291.15 14.5C1291.15 13.7733 1291.26 13.14 1291.47 12.6C1291.69 12.0533 1292 11.63 1292.41 11.33C1292.82 11.03 1293.3 10.88 1293.87 10.88C1294.44 10.88 1294.92 11.03 1295.33 11.33C1295.74 11.63 1296.05 12.0533 1296.26 12.6C1296.48 13.14 1296.59 13.7733 1296.59 14.5C1296.59 15.2267 1296.48 15.8633 1296.26 16.41C1296.05 16.95 1295.74 17.37 1295.33 17.67C1294.92 17.97 1294.44 18.12 1293.87 18.12ZM1293.87 17.33C1294.42 17.33 1294.87 17.0833 1295.21 16.59C1295.56 16.0967 1295.73 15.4 1295.73 14.5C1295.73 13.6 1295.56 12.9033 1295.21 12.41C1294.87 11.9167 1294.42 11.67 1293.87 11.67C1293.31 11.67 1292.86 11.9167 1292.52 12.41C1292.18 12.9033 1292.01 13.6 1292.01 14.5C1292.01 15.4 1292.18 16.0967 1292.52 16.59C1292.86 17.0833 1293.31 17.33 1293.87 17.33ZM1299.87 18.12C1299.3 18.12 1298.81 17.97 1298.41 17.67C1298 17.37 1297.69 16.95 1297.47 16.41C1297.25 15.8633 1297.15 15.2267 1297.15 14.5C1297.15 13.7733 1297.25 13.14 1297.47 12.6C1297.69 12.0533 1298 11.63 1298.41 11.33C1298.81 11.03 1299.3 10.88 1299.87 10.88C1300.43 10.88 1300.92 11.03 1301.33 11.33C1301.73 11.63 1302.04 12.0533 1302.26 12.6C1302.48 13.14 1302.59 13.7733 1302.59 14.5C1302.59 15.2267 1302.48 15.8633 1302.26 16.41C1302.04 16.95 1301.73 17.37 1301.33 17.67C1300.92 17.97 1300.43 18.12 1299.87 18.12ZM1299.87 17.33C1300.42 17.33 1300.87 17.0833 1301.21 16.59C1301.55 16.0967 1301.73 15.4 1301.73 14.5C1301.73 13.6 1301.55 12.9033 1301.21 12.41C1300.87 11.9167 1300.42 11.67 1299.87 11.67C1299.31 11.67 1298.86 11.9167 1298.52 12.41C1298.18 12.9033 1298.01 13.6 1298.01 14.5C1298.01 15.4 1298.18 16.0967 1298.52 16.59C1298.86 17.0833 1299.31 17.33 1299.87 17.33ZM1303.43 18V11H1304.29L1307.47 16.53V11H1308.3V18H1307.43L1304.25 12.47V18H1303.43ZM1340.2 13.45H1343.67V16.92H1340.2V13.45ZM1376.09 18L1375.02 11H1375.87L1376.58 16.4L1377.57 11H1378.43L1379.42 16.4L1380.13 11H1380.98L1379.91 18H1378.95L1378 12.62L1377.05 18H1376.09ZM1381.33 18L1383.52 11H1384.49L1386.67 18H1385.75L1385.24 16.26H1382.76L1382.25 18H1381.33ZM1383.98 12.18L1382.97 15.56H1385.03L1384.02 12.18H1383.98ZM1387.98 18V17.27H1389.57V11.73H1387.98V11H1392V11.73H1390.41V17.27H1392V18H1387.98ZM1395.57 18V11.76H1393.69V11H1398.29V11.76H1396.41V18H1395.57ZM1399.86 18V11H1400.7V17.24H1404.25V18H1399.86ZM1405.97 18V17.27H1407.56V11.73H1405.97V11H1409.99V11.73H1408.4V17.27H1409.99V18H1405.97ZM1414.05 18.12C1413.56 18.12 1413.13 18.0267 1412.76 17.84C1412.4 17.6533 1412.12 17.3933 1411.92 17.06C1411.73 16.7267 1411.63 16.3367 1411.62 15.89H1412.5C1412.51 16.29 1412.64 16.6367 1412.9 16.93C1413.17 17.2167 1413.55 17.36 1414.05 17.36C1414.51 17.36 1414.86 17.25 1415.11 17.03C1415.36 16.8033 1415.49 16.5333 1415.49 16.22C1415.49 15.96 1415.43 15.7433 1415.31 15.57C1415.19 15.39 1414.99 15.2333 1414.72 15.1C1414.45 14.96 1414.09 14.8167 1413.64 14.67C1413 14.4767 1412.53 14.2133 1412.24 13.88C1411.95 13.5467 1411.8 13.1333 1411.8 12.64C1411.8 12.3067 1411.89 12.0067 1412.06 11.74C1412.23 11.4733 1412.48 11.2633 1412.81 11.11C1413.14 10.9567 1413.53 10.88 1414 10.88C1414.44 10.88 1414.82 10.9633 1415.15 11.13C1415.48 11.29 1415.74 11.5167 1415.92 11.81C1416.11 12.1033 1416.2 12.44 1416.2 12.82H1415.32C1415.32 12.6333 1415.27 12.45 1415.17 12.27C1415.07 12.09 1414.92 11.94 1414.72 11.82C1414.52 11.7 1414.27 11.64 1413.96 11.64C1413.59 11.64 1413.29 11.73 1413.04 11.91C1412.79 12.0833 1412.67 12.3233 1412.67 12.63C1412.67 12.8633 1412.72 13.06 1412.83 13.22C1412.94 13.38 1413.13 13.5267 1413.38 13.66C1413.63 13.7867 1413.98 13.9233 1414.41 14.07C1414.82 14.2033 1415.16 14.36 1415.45 14.54C1415.74 14.7133 1415.97 14.93 1416.12 15.19C1416.28 15.45 1416.36 15.7733 1416.36 16.16C1416.36 16.54 1416.26 16.8767 1416.07 17.17C1415.88 17.4633 1415.61 17.6967 1415.26 17.87C1414.91 18.0367 1414.51 18.12 1414.05 18.12ZM1419.55 18V11.76H1417.67V11H1422.27V11.76H1420.39V18H1419.55ZM1454.31 13.45H1457.78V16.92H1454.31V13.45Z" fill="#FE240B"/>
<line y1="29.5" x2="1440" y2="29.5" stroke="#FE240B"/>
</g>
</svg>
